<svg width="24" height="24" viewBox="0 0 24 24" fill="none" xmlns="http://www.w3.org/2000/svg">
<path d="M11.9972 1.28003C9.50975 1.28003 7.49861 3.2044 7.49861 5.57862V7.70293H3.52925C3.23816 7.70293 3 7.92785 3 8.20276V19.9489C3 21.8733 4.66713 23.4478 6.70474 23.4478H17.2897C19.3273 23.4478 20.9944 21.8733 20.9944 19.9489V8.20276C20.9944 7.92785 20.7563 7.70293 20.4652 7.70293H16.4958V5.57862C16.4958 3.2044 14.4847 1.28003 11.9972 1.28003ZM8.55711 5.57862C8.55711 3.75422 10.0919 2.2797 11.9972 2.2797C13.9025 2.2797 15.4373 3.75422 15.4373 5.57862V7.70293H8.55711V5.57862ZM19.9359 8.72759V19.9739C19.9359 21.3485 18.7451 22.4731 17.2897 22.4731H6.70474C5.2493 22.4731 4.0585 21.3485 4.0585 19.9739V8.72759H7.49861V10.2771C7.49861 10.552 7.73677 10.7769 8.02786 10.7769C8.31894 10.7769 8.55711 10.552 8.55711 10.2771V8.72759H15.4373V10.2771C15.4373 10.552 15.6755 10.7769 15.9666 10.7769C16.2577 10.7769 16.4958 10.552 16.4958 10.2771V8.72759H19.9359Z" fill="#111111"/>
</svg>
