<svg width="24" height="15" viewBox="0 0 24 15" fill="none" xmlns="http://www.w3.org/2000/svg">
<path d="M13.1656 6.3501C14.0056 6.3501 14.6887 5.66663 14.6887 4.82694C14.6887 3.98696 14.0056 3.30379 13.1656 3.30379C12.3259 3.30379 11.6424 3.98726 11.6424 4.82694C11.6424 5.66663 12.3256 6.3501 13.1656 6.3501ZM13.1656 4.35557C13.4255 4.35557 13.6373 4.56706 13.6373 4.82694C13.6373 5.08683 13.4255 5.29832 13.1656 5.29832C12.9057 5.29832 12.6942 5.08683 12.6942 4.82694C12.6942 4.56706 12.9057 4.35557 13.1656 4.35557ZM15.774 9.8131C15.774 10.6531 16.4571 11.3363 17.2971 11.3363C18.1368 11.3363 18.8203 10.6528 18.8203 9.8131C18.8203 8.97311 18.1371 8.28995 17.2971 8.28995C16.4571 8.28995 15.774 8.97341 15.774 9.8131ZM17.7685 9.8131C17.7685 10.073 17.557 10.2845 17.2971 10.2845C17.0372 10.2845 16.8254 10.073 16.8254 9.8131C16.8254 9.55322 17.0372 9.34173 17.2971 9.34173C17.557 9.34173 17.7685 9.55322 17.7685 9.8131ZM12.6685 10.7072L16.8834 3.40685C17.0283 3.15533 17.3497 3.069 17.6018 3.21448C17.8533 3.35965 17.9397 3.68137 17.7942 3.93289L13.5793 11.2332C13.4819 11.402 13.3051 11.4964 13.1232 11.4964C13.0342 11.4964 12.9436 11.4737 12.8606 11.4259C12.6094 11.2804 12.5231 10.9587 12.6685 10.7072ZM23.4749 0H7.65518C7.36483 0 7.12944 0.235388 7.12944 0.526038C7.12944 1.12227 6.64433 1.60739 6.04809 1.60739C5.45186 1.60739 4.96674 1.12227 4.96674 0.526038C4.96674 0.235686 4.73136 0 4.441 0H0.525739C0.235388 0 0 0.235388 0 0.526038V14.2248C0 14.5152 0.235388 14.7509 0.525739 14.7509H4.4407C4.73106 14.7509 4.96644 14.5155 4.96644 14.2248C4.96644 13.6286 5.45156 13.1435 6.04779 13.1435C6.64403 13.1435 7.12914 13.6286 7.12914 14.2248C7.12914 14.5152 7.36453 14.7509 7.65488 14.7509H23.4743C23.7646 14.7509 24 14.5155 24 14.2248V0.525739C24.0006 0.235388 23.7652 0 23.4749 0ZM22.9491 13.6988H8.1155C7.88071 12.7761 7.04282 12.0914 6.04779 12.0914C5.05277 12.0914 4.21488 12.7761 3.98009 13.6988H1.05118V1.05178H3.98009C4.21488 1.97451 5.05277 2.65917 6.04779 2.65917C7.04282 2.65917 7.88071 1.97481 8.1155 1.05178H22.9488V13.6988H22.9491ZM5.52205 3.76561H6.57383V5.45962H5.52205V3.76561ZM5.52205 6.52843H6.57383V8.22215H5.52205V6.52843ZM5.52205 9.29125H6.57383V10.985H5.52205V9.29125Z" fill="#F9FFFE"/>
</svg>
