<svg width="26" height="26" viewBox="0 0 26 26" fill="none" xmlns="http://www.w3.org/2000/svg">
<path d="M21 6.2H16.36V5.56C16.36 4.2 15.32 3 13.96 3H11.96C10.6 3 9.56 4.12 9.56 5.56V6.2H5V7H6.6L7.56 23H18.28L19.24 7H20.84V6.2H21ZM10.44 5.56C10.44 4.6 11.16 3.8 12.04 3.8H14.04C14.92 3.8 15.64 4.6 15.64 5.56V6.2H10.44V5.56ZM17.64 22.2H8.36L7.4 7H18.6L17.64 22.2Z" fill="black"/>
<path d="M13.3996 9.80005H12.5996V19.4H13.3996V9.80005Z" fill="black"/>
<path d="M15.5608 9.88403L14.9658 19.3852L15.7633 19.4352L16.3583 9.93403L15.5608 9.88403Z" fill="black"/>
<path d="M10.3815 9.86646L9.58398 9.91646L10.1777 19.4176L10.9765 19.3676L10.3815 9.86646Z" fill="black"/>
</svg>
