<svg width="48" height="48" viewBox="0 0 48 48" fill="none" xmlns="http://www.w3.org/2000/svg">
<path d="M0 8C0 3.58172 3.58172 0 8 0H40C44.4183 0 48 3.58172 48 8V40C48 44.4183 44.4183 48 40 48H8C3.58172 48 0 44.4183 0 40V8Z" fill="#222222"/>
<path d="M21.2887 33V24.5539H18.75V21.5129H21.2887V18.9154C21.2887 16.8744 22.7884 15 26.2438 15C27.6429 15 28.6775 15.118 28.6775 15.118L28.5959 17.9578C28.5959 17.9578 27.5409 17.9487 26.3895 17.9487C25.1434 17.9487 24.9438 18.4539 24.9438 19.2924V21.5129H28.695L28.5318 24.5539H24.9438V33H21.2887Z" fill="white"/>
</svg>
