<svg width="140" height="47" viewBox="0 0 140 47" fill="none" xmlns="http://www.w3.org/2000/svg">
<g clip-path="url(#clip0_2214_1084)">
<path d="M10.766 39.3862H15.6628V42.7216H2.32422V39.3862H7.22094V14.0736H2.32422V10.7381H15.6628V14.0736H10.766V39.3862Z" fill="white"/>
<path d="M55.4016 10.5322V42.7216H52.5654L31.6427 16.6023V42.7216H28.2021V10.5322H31.0384L52.0074 36.6515V10.5322H55.4016Z" fill="white"/>
<mask id="mask0_2214_1084" style="mask-type:luminance" maskUnits="userSpaceOnUse" x="0" y="0" width="140" height="47">
<path d="M0 0H140V47H0V0Z" fill="white"/>
</mask>
<g mask="url(#mask0_2214_1084)">
<path d="M90.8335 21.5685C90.8335 16.4182 87.3927 13.4751 80.8836 13.4751H72.2356V29.6159H80.8836C87.3927 29.6159 90.8335 26.6269 90.8335 21.5685ZM91.0193 42.7216L83.5802 32.375C82.7434 32.4669 81.9065 32.5129 80.9765 32.5129H72.2356V42.7216H68.7949V10.5321H80.9765C89.2525 10.5321 94.274 14.6709 94.274 21.5685C94.274 26.6269 91.5774 30.1676 86.8349 31.6852L94.7855 42.7216H91.0193Z" fill="white"/>
<path d="M113.453 4.00251H127.773V6.16372H113.453V4.00251ZM134.236 26.6269C134.236 18.9475 128.424 13.2913 120.613 13.2913C112.755 13.2913 106.897 18.9475 106.897 26.6269C106.897 34.3063 112.755 39.9624 120.613 39.9624C128.424 39.9624 134.236 34.3063 134.236 26.6269ZM103.503 26.6269C103.503 17.246 110.756 10.2564 120.613 10.2564C130.377 10.2564 137.676 17.2 137.676 26.6269C137.676 36.0537 130.377 42.9975 120.613 42.9975C110.756 42.9975 103.503 36.0079 103.503 26.6269Z" fill="white"/>
</g>
</g>
<defs>
<clipPath id="clip0_2214_1084">
<rect width="140" height="47" fill="white"/>
</clipPath>
</defs>
</svg>
