<svg width="48" height="48" viewBox="0 0 48 48" fill="none" xmlns="http://www.w3.org/2000/svg">
<path d="M0 8C0 3.58172 3.58172 0 8 0H40C44.4183 0 48 3.58172 48 8V40C48 44.4183 44.4183 48 40 48H8C3.58172 48 0 44.4183 0 40V8Z" fill="#222222"/>
<path d="M24.0001 20.8758C22.2798 20.8758 20.8759 22.2797 20.8759 24C20.8759 25.7203 22.2798 27.1242 24.0001 27.1242C25.7204 27.1242 27.1243 25.7203 27.1243 24C27.1243 22.2797 25.7204 20.8758 24.0001 20.8758ZM33.3704 24C33.3704 22.7063 33.3821 21.4242 33.3095 20.1328C33.2368 18.6328 32.8946 17.3016 31.7978 16.2047C30.6985 15.1055 29.3696 14.7656 27.8696 14.693C26.5759 14.6203 25.2939 14.632 24.0025 14.632C22.7087 14.632 21.4267 14.6203 20.1353 14.693C18.6353 14.7656 17.304 15.1078 16.2071 16.2047C15.1079 17.3039 14.7681 18.6328 14.6954 20.1328C14.6228 21.4266 14.6345 22.7086 14.6345 24C14.6345 25.2914 14.6228 26.5758 14.6954 27.8672C14.7681 29.3672 15.1103 30.6985 16.2071 31.7953C17.3064 32.8945 18.6353 33.2344 20.1353 33.307C21.429 33.3797 22.711 33.368 24.0025 33.368C25.2962 33.368 26.5782 33.3797 27.8696 33.307C29.3696 33.2344 30.7009 32.8922 31.7978 31.7953C32.897 30.6961 33.2368 29.3672 33.3095 27.8672C33.3845 26.5758 33.3704 25.2938 33.3704 24ZM24.0001 28.807C21.34 28.807 19.1931 26.6602 19.1931 24C19.1931 21.3399 21.34 19.193 24.0001 19.193C26.6603 19.193 28.8071 21.3399 28.8071 24C28.8071 26.6602 26.6603 28.807 24.0001 28.807ZM29.004 20.1188C28.3829 20.1188 27.8814 19.6172 27.8814 18.9961C27.8814 18.375 28.3829 17.8735 29.004 17.8735C29.6251 17.8735 30.1267 18.375 30.1267 18.9961C30.1269 19.1436 30.0979 19.2897 30.0416 19.4259C29.9852 19.5622 29.9026 19.6861 29.7983 19.7904C29.694 19.8946 29.5701 19.9773 29.4339 20.0337C29.2976 20.09 29.1515 20.1189 29.004 20.1188Z" fill="white"/>
</svg>
