<svg width="199" height="75" viewBox="0 0 199 75" fill="none" xmlns="http://www.w3.org/2000/svg">
<rect x="0.5" y="0.5" width="198" height="74" rx="3.5" stroke="#111111"/>
<path fill-rule="evenodd" clip-rule="evenodd" d="M35.8565 22.9088C36.7332 23.6968 37.669 24.7579 38.09 25.7825C38.3583 26.4355 38.4409 27.1348 38.0824 27.7374C37.7281 28.3331 36.9959 28.7425 35.8562 28.9513L35.8547 28.9516C34.728 29.152 33.209 29.5888 32.2591 30.2318C31.7816 30.5551 31.5006 30.8949 31.4307 31.2342C31.3653 31.5522 31.4681 31.9661 31.9915 32.493C33.4498 33.9611 33.8174 35.4896 33.4717 36.5911C33.2994 37.14 32.9485 37.5765 32.4783 37.8133C32.0057 38.0513 31.4387 38.074 30.8643 37.8428C30.3852 37.65 29.9674 37.5592 29.6331 37.5481C29.294 37.5368 29.069 37.6077 28.9422 37.7034C28.8309 37.7875 28.7669 37.9106 28.7839 38.1078C28.8023 38.3213 28.9187 38.6224 29.2027 39.0036C30.106 40.2164 31.6042 40.7839 32.2349 40.9121C32.4553 40.9494 32.7031 41.0194 32.9148 41.1336C33.1215 41.245 33.3455 41.4274 33.4153 41.712C33.4883 42.0092 33.3681 42.307 33.1301 42.5841C32.8918 42.8615 32.5015 43.1615 31.9261 43.4926C31.7372 43.6013 31.5914 43.694 31.4819 43.7718C32.1084 43.7621 33.2337 43.5499 34.1038 43.3483C34.9805 43.0106 36.2479 42.6499 37.1594 42.7187C37.613 42.7529 38.0843 42.903 38.2999 43.3379C38.5091 43.7602 38.4077 44.3186 38.077 44.9843C37.2671 46.6143 36.4812 48.2315 36.189 49.4545C36.0416 50.0717 36.0364 50.5259 36.1605 50.8189C36.2188 50.9567 36.307 51.0621 36.4344 51.1395C36.561 51.2164 36.7404 51.2739 36.9932 51.2918C43.8775 50.3123 49.1745 44.3555 49.176 37.155C49.1761 36.9966 49.1735 36.8387 49.1685 36.6814C48.1613 36.786 46.7945 36.792 45.6233 36.4957C44.9719 36.3308 44.3566 36.0664 43.8997 35.6508C43.4336 35.2266 43.1443 34.6545 43.1444 33.9175C43.1445 33.5193 43.1258 33.2345 43.0929 33.0344C43.0593 32.8308 43.0165 32.7523 42.9972 32.7283C42.994 32.7283 42.9896 32.7285 42.9839 32.729C42.9323 32.7341 42.8502 32.7612 42.7118 32.8246C42.6623 32.8472 42.6086 32.8734 42.5508 32.9015C42.0122 33.1634 41.1233 33.5958 40.0722 32.9611C39.8047 32.7995 39.6357 32.5661 39.565 32.2833C39.4971 32.0111 39.5252 31.7143 39.6052 31.4186C39.7642 30.8305 40.1545 30.1536 40.6378 29.4771C41.5313 28.2261 42.8065 26.8892 43.7936 25.958C41.5862 24.1988 38.8465 23.0874 35.8565 22.9088ZM44.2572 26.3438C43.2787 27.2618 42.0016 28.5963 41.1221 29.8276C40.6499 30.4886 40.3111 31.0945 40.1809 31.5762C40.1162 31.8154 40.1096 32.0002 40.1437 32.1367C40.1751 32.2625 40.2447 32.3647 40.3793 32.446C41.1423 32.9068 41.7405 32.6218 42.2869 32.3616C42.3469 32.333 42.4062 32.3047 42.4651 32.2778C42.6033 32.2145 42.7662 32.1468 42.9268 32.1312C43.111 32.1132 43.3035 32.1638 43.4502 32.3373C43.5761 32.486 43.642 32.6964 43.6815 32.9358C43.7223 33.1833 43.7412 33.5058 43.7411 33.9174C43.741 34.4758 43.9523 34.8888 44.2999 35.2051C44.6568 35.5298 45.1683 35.7611 45.769 35.9132C46.8628 36.1899 48.171 36.1839 49.1368 36.0809C48.8505 32.195 47.0189 28.7425 44.2572 26.3438ZM35.8318 51.4083C35.7399 51.3038 35.6668 51.1851 35.6116 51.0546C35.4091 50.5762 35.4545 49.9607 35.6089 49.3143C35.9205 48.0101 36.7439 46.325 37.5434 44.7158C37.8564 44.0857 37.8422 43.7602 37.766 43.6064C37.6961 43.4653 37.5088 43.3474 37.1146 43.3176C36.3371 43.259 35.1635 43.5813 34.2981 43.9165L34.2785 43.9241L34.2581 43.9289C33.3881 44.1311 32.1933 44.3615 31.4909 44.3723C31.3173 44.375 31.1441 44.3653 31.0068 44.324C30.9387 44.3035 30.85 44.2669 30.7777 44.194C30.6933 44.1089 30.6485 43.9912 30.6637 43.8632C30.6768 43.7536 30.7306 43.6645 30.7797 43.601C30.8314 43.534 30.8982 43.4693 30.9738 43.4065C31.1253 43.2806 31.3428 43.1366 31.6303 42.9711C32.1811 42.6542 32.5047 42.3941 32.6788 42.1913C32.8531 41.9884 32.8436 41.8865 32.8361 41.8564C32.8257 41.8137 32.7783 41.7415 32.633 41.6631C32.4946 41.5885 32.3122 41.534 32.1317 41.5037L32.1269 41.503L32.1223 41.502C31.4098 41.3587 29.7496 40.7391 28.7253 39.3641C28.4062 38.9357 28.2212 38.5285 28.1895 38.1599C28.1563 37.7751 28.2935 37.4427 28.5844 37.223C28.8597 37.015 29.2381 36.9339 29.653 36.9478C30.0728 36.9618 30.5597 37.0732 31.086 37.2851C31.5168 37.4585 31.905 37.4304 32.2116 37.2761C32.5207 37.1205 32.7733 36.8229 32.9028 36.4103C33.1607 35.5885 32.9257 34.2832 31.5695 32.9178C30.9671 32.3114 30.725 31.703 30.8465 31.1125C30.9637 30.5434 31.4017 30.0885 31.9264 29.7334C32.9807 29.0197 34.5984 28.5652 35.7507 28.3602C36.8223 28.1637 37.3467 27.8054 37.5706 27.429C37.7904 27.0594 37.7728 26.5821 37.5386 26.0123C37.0791 24.8938 35.8768 23.6551 34.8983 22.8838C27.9924 22.9341 22.2584 27.9544 21.0514 34.5678C21.8023 34.1632 22.7483 33.7445 23.6053 33.5574C24.1427 33.4402 24.6863 33.4044 25.1329 33.5575C25.3616 33.6358 25.5679 33.765 25.7294 33.9587C25.8907 34.1522 25.9946 34.395 26.042 34.6816C26.1584 35.3853 25.9505 35.8848 25.5983 36.2547C25.3178 36.5494 24.9432 36.7599 24.6355 36.9328C24.5841 36.9616 24.5346 36.9894 24.4877 37.0164C24.3134 37.1167 24.1721 37.2058 24.0654 37.2989C23.9607 37.3903 23.907 37.4708 23.8845 37.5484C23.8419 37.6954 23.8733 37.9907 24.3674 38.5877C25.2623 39.6689 25.257 41.1384 24.9438 42.4628C24.6515 43.699 24.0763 44.8777 23.5958 45.6519C26.1788 49.161 30.3222 51.4341 34.9937 51.433C35.2751 51.4329 35.5545 51.4247 35.8318 51.4083ZM23.2204 45.1167C23.6441 44.3911 24.1151 43.3743 24.3634 42.3239C24.6614 41.0638 24.6223 39.8342 23.909 38.9724C23.398 38.355 23.1783 37.8407 23.3117 37.3804C23.3773 37.1542 23.5184 36.9816 23.6745 36.8452C23.8287 36.7106 24.0141 36.5972 24.1918 36.495C24.2481 36.4626 24.3038 36.4311 24.3586 36.4001C24.6702 36.224 24.9544 36.0632 25.1676 35.8392C25.3937 35.6017 25.5379 35.2914 25.4535 34.7805C25.4205 34.5812 25.354 34.4429 25.2723 34.3449C25.1909 34.2472 25.0819 34.1746 24.9404 34.1261C24.6467 34.0254 24.231 34.0354 23.7315 34.1445C22.7918 34.3495 21.7004 34.8714 20.9345 35.3212C20.8575 35.9235 20.8176 36.5377 20.8175 37.1614C20.8168 40.1072 21.7024 42.8438 23.2204 45.1167ZM35 22.2827C38.5892 22.2819 41.8801 23.57 44.4396 25.7121C47.5021 28.2751 49.5193 32.0622 49.7505 36.3288C49.7653 36.6023 49.7728 36.8777 49.7727 37.1549C49.7711 44.6696 44.2351 50.8836 37.0454 51.8909C36.3746 51.9849 35.6896 52.0335 34.9935 52.0337C30.0494 52.0348 25.6731 49.5909 22.9922 45.8384C21.2475 43.3964 20.2201 40.3994 20.2208 37.1615C20.221 36.4607 20.2693 35.771 20.3627 35.0958C21.3632 27.8577 27.5356 22.2844 35 22.2827ZM21.0577 20.4939C21.1958 20.5843 21.2349 20.7704 21.145 20.9094L19.7264 23.1038L21.9675 25.9392C22.0701 26.069 22.0487 26.2579 21.9198 26.3612C21.7909 26.4645 21.6032 26.4432 21.5006 26.3134L19.3833 23.6345L14.8778 30.6037L15.7638 32.2894C15.8409 32.4359 15.7852 32.6177 15.6396 32.6954C15.494 32.773 15.3134 32.7171 15.2364 32.5705L14.3419 30.8687L12.2646 30.6313C12.1009 30.6126 11.9833 30.4638 12.0019 30.299C12.0206 30.1342 12.1684 30.0158 12.3321 30.0345L14.3826 30.2688L18.8833 23.307L15.5922 22.4436C15.4329 22.4017 15.3374 22.2377 15.379 22.0772C15.4206 21.9167 15.5836 21.8205 15.743 21.8623L19.2264 22.7762L20.645 20.5819C20.7349 20.4429 20.9197 20.4035 21.0577 20.4939Z" fill="black"/>
<path fill-rule="evenodd" clip-rule="evenodd" d="M34.4144 15.0076C34.6076 15.0025 34.8014 15 34.9959 15C35.2028 15 35.409 15.0029 35.6145 15.0086L35.5981 15.6093C35.3981 15.6038 35.1973 15.601 34.9959 15.601C34.8066 15.601 34.6179 15.6035 34.4298 15.6084L34.4144 15.0076ZM32.0965 15.1908C32.479 15.1401 32.8647 15.0992 33.2532 15.0685L33.2997 15.6676C32.9217 15.6975 32.5465 15.7373 32.1743 15.7867L32.0965 15.1908ZM36.8466 15.0773C37.2587 15.1119 37.6676 15.158 38.073 15.2152L37.9904 15.8103C37.5959 15.7547 37.1981 15.7099 36.7971 15.6762L36.8466 15.0773ZM29.8105 15.6193C30.186 15.5279 30.5652 15.4462 30.948 15.3745L31.057 15.9653C30.6847 16.0351 30.3158 16.1146 29.9505 16.2035L29.8105 15.6193ZM39.2898 15.422C39.6951 15.5028 40.0963 15.5949 40.4932 15.6977L40.3447 16.2797C39.9586 16.1797 39.5683 16.0902 39.1742 16.0116L39.2898 15.422ZM27.5824 16.2901C27.9465 16.1589 28.315 16.037 28.6875 15.9249L28.8582 16.5007C28.4958 16.6098 28.1374 16.7283 27.7833 16.8559L27.5824 16.2901ZM41.68 16.0417C42.0734 16.1679 42.462 16.305 42.8454 16.4526L42.6326 17.014C42.2597 16.8704 41.8817 16.7371 41.499 16.6143L41.68 16.0417ZM25.4377 17.1957C25.7861 17.0262 26.1397 16.8656 26.4981 16.7142L26.7285 17.2685C26.3799 17.4157 26.036 17.5719 25.697 17.7369L25.4377 17.1957ZM43.9858 16.9291C44.3621 17.0991 44.7328 17.2794 45.0975 17.4697L44.8234 18.0034C44.4686 17.8183 44.1079 17.6429 43.7419 17.4776L43.9858 16.9291ZM23.4005 18.3253C23.7294 18.1194 24.0641 17.9219 24.4042 17.7333L24.6917 18.2598C24.3607 18.4433 24.0351 18.6354 23.7151 18.8357L23.4005 18.3253ZM46.1773 18.0723C46.5319 18.2836 46.8802 18.5047 47.2218 18.735L46.89 19.2344C46.5577 19.0102 46.2189 18.7952 45.8738 18.5896L46.1773 18.0723ZM21.9565 19.3111C22.1125 19.1953 22.27 19.0815 22.4291 18.9698L22.7701 19.4628C22.6153 19.5715 22.462 19.6822 22.3102 19.7949L21.9565 19.3111ZM48.2278 19.4557C48.5566 19.7055 48.8783 19.9643 49.1924 20.2319L48.8074 20.6908C48.5018 20.4305 48.1888 20.1786 47.8688 19.9356L48.2278 19.4557ZM50.1125 21.061C50.4114 21.3459 50.7024 21.6392 50.9852 21.9405L50.5519 22.3534C50.2768 22.0603 49.9936 21.7749 49.7027 21.4976L50.1125 21.061ZM51.8079 22.8677C52.0734 23.1842 52.3303 23.5084 52.5781 23.8397L52.1019 24.2014C51.8608 23.879 51.6108 23.5636 51.3525 23.2556L51.8079 22.8677ZM53.2933 24.8535C53.5219 25.1977 53.7412 25.5487 53.9509 25.9061L53.4375 26.2119C53.2336 25.8642 53.0202 25.5227 52.7977 25.1879L53.2933 24.8535ZM54.5489 26.9942C54.7377 27.3617 54.9167 27.7353 55.0853 28.1146L54.5411 28.3604C54.377 27.9914 54.203 27.628 54.0193 27.2704L54.5489 26.9942ZM55.5582 29.2638C55.7047 29.6502 55.8407 30.0417 55.966 30.4382L55.3978 30.6205C55.2759 30.235 55.1436 29.854 55.0011 29.4782L55.5582 29.2638ZM56.3073 31.6342C56.4094 32.0341 56.5007 32.4385 56.5808 32.8468L55.9958 32.9634C55.9179 32.5662 55.8291 32.1729 55.7297 31.7838L56.3073 31.6342ZM13.8176 34.0063C13.8167 34.0122 13.8159 34.0182 13.815 34.0241L13.531 33.9823L13.2558 33.9593L13.2572 33.942L13.225 33.9372C13.2472 33.7839 13.2711 33.631 13.2964 33.4787L13.8876 33.5533L13.8501 34.0089L13.8176 34.0063ZM56.7861 34.073C56.8429 34.4816 56.8886 34.8937 56.9229 35.309L56.3286 35.3589C56.2952 34.9547 56.2508 34.5538 56.1956 34.1564L56.7861 34.073ZM13.4316 34.8917L13.1108 34.8581C13.0792 35.1646 13.0538 35.4729 13.0348 35.7829L13.3551 35.8029L13.7 35.8318L13.7751 34.9203L13.4316 34.8917ZM56.9911 36.5506C56.9968 36.7577 56.9996 36.9655 56.9996 37.174C56.9996 37.3825 56.9968 37.5903 56.9911 37.7974L56.395 37.7809C56.4006 37.5793 56.4033 37.377 56.4033 37.174C56.4033 36.9711 56.4006 36.7687 56.395 36.5672L56.9911 36.5506ZM13.0293 36.7108L13.0307 36.6935L13.3058 36.7164L13.5931 36.7224C13.593 36.7284 13.5928 36.7344 13.5927 36.7404L13.625 36.7432L13.5885 37.1864C13.5886 37.3852 13.5914 37.5834 13.5968 37.7809L13.0007 37.7974C12.995 37.5903 12.9922 37.3825 12.9922 37.174C12.9922 37.019 12.9938 36.8644 12.9969 36.7101L13.0293 36.7108ZM56.9229 39.039C56.8886 39.4543 56.8429 39.8664 56.7861 40.2749L56.1956 40.1916C56.2508 39.7942 56.2952 39.3933 56.3286 38.9891L56.9229 39.039ZM13.2056 40.275C13.1489 39.8665 13.1033 39.4543 13.0689 39.039L13.6632 38.9891C13.6966 39.3933 13.741 39.7942 13.7963 40.1916L13.2056 40.275ZM56.5808 41.5012C56.5007 41.9095 56.4094 42.3139 56.3073 42.7139L55.7297 42.5642C55.8291 42.1751 55.9179 41.7818 55.9958 41.3846L56.5808 41.5012ZM13.6845 42.7139C13.5824 42.3139 13.4912 41.9095 13.411 41.5012L13.996 41.3846C14.074 41.7818 14.1628 42.1751 14.262 42.5642L13.6845 42.7139ZM55.966 43.9098C55.8407 44.3063 55.7047 44.6978 55.5582 45.0843L55.0011 44.8698C55.1436 44.494 55.2759 44.113 55.3978 43.7275L55.966 43.9098ZM14.4336 45.0843C14.2872 44.6978 14.1511 44.3063 14.0258 43.9098L14.5941 43.7275C14.7159 44.113 14.8482 44.494 14.9907 44.8698L14.4336 45.0843ZM55.0853 46.2335C54.9167 46.6126 54.7378 46.9863 54.5489 47.3538L54.0193 47.0776C54.203 46.72 54.377 46.3565 54.5411 45.9877L55.0853 46.2335ZM15.4429 47.3538C15.2541 46.9863 15.0752 46.6127 14.9065 46.2335L15.4507 45.9877C15.6148 46.3566 15.7888 46.72 15.9725 47.0776L15.4429 47.3538ZM53.9509 48.4419C53.7412 48.7993 53.5219 49.1503 53.2933 49.4944L52.7977 49.1601C53.0202 48.8253 53.2336 48.4838 53.4376 48.1361L53.9509 48.4419ZM16.6985 49.4945C16.4699 49.1503 16.2506 48.7993 16.0409 48.4419L16.5542 48.1361C16.7582 48.4838 16.9716 48.8253 17.1941 49.1601L16.6985 49.4945ZM52.5781 50.5083C52.3303 50.8397 52.0734 51.1638 51.8079 51.4804L51.3525 51.0924C51.6108 50.7844 51.8608 50.469 52.1019 50.1466L52.5781 50.5083ZM18.1838 51.4804C17.9183 51.1638 17.6615 50.8397 17.4136 50.5083L17.8898 50.1466C18.131 50.469 18.3809 50.7844 18.6393 51.0924L18.1838 51.4804ZM50.9852 52.4075C50.7024 52.7088 50.4114 53.0021 50.1125 53.287L49.7027 52.8504C49.9936 52.5731 50.2768 52.2878 50.5519 51.9946L50.9852 52.4075ZM19.8794 53.287C19.5804 53.0021 19.2893 52.7088 19.0066 52.4076L19.4399 51.9946C19.715 52.2878 19.9982 52.5731 20.2891 52.8504L19.8794 53.287ZM49.1924 54.1161C48.8783 54.3837 48.5566 54.6426 48.2278 54.8923L47.8688 54.4124C48.1888 54.1694 48.5018 53.9175 48.8075 53.6572L49.1924 54.1161ZM21.764 54.8923C21.4352 54.6426 21.1136 54.3837 20.7994 54.1161L21.1844 53.6572C21.4901 53.9175 21.803 54.1694 22.1229 54.4124L21.764 54.8923ZM47.2218 55.6129C46.8802 55.8434 46.5319 56.0644 46.1773 56.2757L45.8738 55.7584C46.2189 55.5528 46.5577 55.3378 46.89 55.1136L47.2218 55.6129ZM23.8145 56.2757C23.4598 56.0644 23.1116 55.8434 22.7701 55.613L23.1018 55.1136C23.4341 55.3378 23.7729 55.5528 24.118 55.7584L23.8145 56.2757ZM45.0975 56.8784C44.7328 57.0686 44.3621 57.2489 43.9858 57.4189L43.7419 56.8705C44.1079 56.7051 44.4686 56.5298 44.8234 56.3446L45.0975 56.8784ZM26.0061 57.4189C25.6297 57.2489 25.259 57.0686 24.8943 56.8784L25.1684 56.3446C25.5232 56.5298 25.8839 56.7051 26.2499 56.8705L26.0061 57.4189ZM28.3118 58.3064C27.9184 58.1801 27.5299 58.043 27.1464 57.8954L27.3592 57.334C27.7322 57.4776 28.1102 57.611 28.4928 57.7338L28.3118 58.3064ZM42.8454 57.8954C42.462 58.043 42.0734 58.1801 41.68 58.3064L41.499 57.7338C41.8817 57.611 42.2597 57.4776 42.6326 57.334L42.8454 57.8954ZM40.4932 58.6503C40.0963 58.7532 39.6951 58.8452 39.2898 58.926L39.1742 58.3364C39.5683 58.2578 39.9586 58.1684 40.3447 58.0683L40.4932 58.6503ZM30.7019 58.926C30.2967 58.8452 29.8955 58.7532 29.4986 58.6503L29.6472 58.0683C30.0332 58.1684 30.4235 58.2578 30.8177 58.3364L30.7019 58.926ZM38.073 59.1329C37.6676 59.1901 37.2587 59.2361 36.8466 59.2707L36.7971 58.6718C37.1981 58.6381 37.596 58.5933 37.9904 58.5377L38.073 59.1329ZM33.1452 59.2707C32.7331 59.2361 32.3241 59.1901 31.9188 59.1329L32.0014 58.5378C32.3958 58.5933 32.7937 58.6381 33.1947 58.6718L33.1452 59.2707ZM34.9959 59.348C34.789 59.348 34.5828 59.3452 34.3773 59.3394L34.3938 58.7387C34.5938 58.7442 34.7945 58.747 34.9959 58.747C35.1973 58.747 35.3981 58.7442 35.5981 58.7387L35.6146 59.3394C35.409 59.3452 35.2028 59.348 34.9959 59.348Z" fill="black"/>
<path d="M67.12 24.032H68.94L72.146 32.474L75.24 24.032H77.074V34H75.828V25.684L72.706 34H71.558L68.38 25.684V34H67.12V24.032ZM85.8253 31.718C85.4613 33.398 84.4113 34.238 82.6753 34.238C81.6113 34.238 80.776 33.9067 80.1693 33.244C79.572 32.5813 79.2733 31.662 79.2733 30.486C79.2733 29.3193 79.5813 28.3767 80.1973 27.658C80.8226 26.93 81.6346 26.566 82.6333 26.566C83.744 26.566 84.5653 26.944 85.0973 27.7C85.6386 28.4467 85.9093 29.394 85.9093 30.542V30.71H80.4773L80.4633 30.794C80.4633 31.5593 80.664 32.1613 81.0653 32.6C81.4666 33.0387 82.0173 33.258 82.7173 33.258C83.24 33.258 83.6506 33.1367 83.9493 32.894C84.2573 32.6513 84.4953 32.2593 84.6633 31.718H85.8253ZM84.6773 29.744C84.6213 29.0533 84.4113 28.5167 84.0473 28.134C83.6833 27.742 83.2026 27.546 82.6053 27.546C82.0266 27.546 81.546 27.742 81.1633 28.134C80.7806 28.526 80.552 29.0627 80.4773 29.744H84.6773ZM90.5368 30.5L88.0588 34H86.5888L89.7528 29.744L86.9948 26.776H88.4648L91.4048 30.094H91.4328V26.776H92.6228V30.094H92.6508L95.5908 26.776H97.0608L94.3028 29.744L97.4668 34H95.9968L93.5188 30.5L92.6228 31.41V34H91.4328V31.41L90.5368 30.5ZM105.941 36.296H104.807V34H99.2912V36.296H98.1572V32.95H98.9412C99.1652 32.5207 99.3706 31.858 99.5572 30.962C99.7532 30.0567 99.8512 29.1747 99.8512 28.316V26.776H105.003V32.95H105.941V36.296ZM103.813 32.95V27.826H101.013V28.428C101.013 29.2773 100.925 30.1407 100.747 31.018C100.579 31.886 100.388 32.53 100.173 32.95H103.813ZM113.518 26.776L110.424 34.924C110.303 35.2507 110.196 35.5027 110.102 35.68C110.018 35.8667 109.892 36.0673 109.724 36.282C109.566 36.506 109.37 36.6647 109.136 36.758C108.912 36.8607 108.646 36.912 108.338 36.912C108.105 36.912 107.811 36.87 107.456 36.786V35.722C107.802 35.8247 108.058 35.876 108.226 35.876C108.618 35.876 108.898 35.6753 109.066 35.274L109.626 33.958L106.756 26.776H108.1L110.242 32.53L112.272 26.776H113.518ZM116.29 34H115.1V26.776H116.29V29.646H119.902V26.776H121.092V34H119.902V30.696H116.29V34ZM129.838 33.048V33.972C129.595 34.0653 129.324 34.112 129.026 34.112C128.344 34.112 127.994 33.7573 127.976 33.048C127.294 33.8133 126.422 34.196 125.358 34.196C124.648 34.196 124.084 34.014 123.664 33.65C123.253 33.286 123.048 32.7867 123.048 32.152C123.048 30.864 123.902 30.1127 125.61 29.898C125.722 29.8793 125.885 29.8607 126.1 29.842C126.912 29.7487 127.411 29.6413 127.598 29.52C127.812 29.3707 127.92 29.114 127.92 28.75C127.92 27.9567 127.374 27.56 126.282 27.56C125.722 27.56 125.297 27.6767 125.008 27.91C124.718 28.134 124.546 28.5073 124.49 29.03H123.328C123.346 28.2553 123.622 27.6533 124.154 27.224C124.686 26.7947 125.418 26.58 126.352 26.58C127.369 26.58 128.125 26.8133 128.62 27.28C128.778 27.4293 128.895 27.6253 128.97 27.868C129.044 28.1107 129.086 28.3113 129.096 28.47C129.105 28.6193 129.11 28.848 129.11 29.156C129.11 29.5107 129.1 30.0473 129.082 30.766C129.063 31.4847 129.054 32.0213 129.054 32.376C129.054 32.6373 129.086 32.824 129.152 32.936C129.226 33.0387 129.357 33.09 129.544 33.09C129.618 33.09 129.716 33.076 129.838 33.048ZM127.92 30.248C127.836 30.3133 127.747 30.3693 127.654 30.416C127.56 30.4627 127.439 30.5 127.29 30.528C127.15 30.556 127.052 30.5793 126.996 30.598C126.949 30.6073 126.828 30.626 126.632 30.654C126.436 30.6727 126.333 30.682 126.324 30.682C126.034 30.7193 125.843 30.7473 125.75 30.766C125.666 30.7753 125.498 30.8127 125.246 30.878C125.003 30.9433 124.83 31.018 124.728 31.102C124.625 31.186 124.522 31.312 124.42 31.48C124.326 31.6387 124.28 31.83 124.28 32.054C124.28 32.4273 124.406 32.7213 124.658 32.936C124.919 33.1507 125.274 33.258 125.722 33.258C126.291 33.258 126.8 33.09 127.248 32.754C127.696 32.418 127.92 32.0213 127.92 31.564V30.248ZM132.639 26.776V27.798C133.162 26.9673 133.974 26.552 135.075 26.552C136.083 26.552 136.881 26.8927 137.469 27.574C138.066 28.2553 138.365 29.1793 138.365 30.346C138.365 31.5127 138.071 32.446 137.483 33.146C136.904 33.8367 136.12 34.182 135.131 34.182C134.095 34.182 133.288 33.7853 132.709 32.992V36.786H131.519V26.776H132.639ZM134.893 27.546C134.202 27.546 133.656 27.798 133.255 28.302C132.863 28.7967 132.667 29.4827 132.667 30.36C132.667 31.2373 132.868 31.928 133.269 32.432C133.68 32.9267 134.235 33.174 134.935 33.174C135.616 33.174 136.153 32.922 136.545 32.418C136.937 31.914 137.133 31.228 137.133 30.36C137.133 29.4827 136.932 28.7967 136.531 28.302C136.139 27.798 135.593 27.546 134.893 27.546ZM140.952 27.602C141.587 26.9113 142.45 26.566 143.542 26.566C144.634 26.566 145.483 26.8973 146.09 27.56C146.697 28.2227 147 29.1513 147 30.346C147 31.5687 146.697 32.5207 146.09 33.202C145.483 33.8833 144.629 34.224 143.528 34.224C142.427 34.224 141.563 33.888 140.938 33.216C140.313 32.544 140 31.6107 140 30.416C140 29.2307 140.317 28.2927 140.952 27.602ZM145.166 28.33C144.765 27.8167 144.214 27.56 143.514 27.56C142.814 27.56 142.259 27.8167 141.848 28.33C141.437 28.8433 141.232 29.5293 141.232 30.388C141.232 31.2747 141.433 31.97 141.834 32.474C142.245 32.9687 142.814 33.216 143.542 33.216C144.242 33.216 144.788 32.964 145.18 32.46C145.581 31.956 145.782 31.2607 145.782 30.374C145.782 29.5153 145.577 28.834 145.166 28.33ZM155.731 36.296H154.597V34H149.081V36.296H147.947V32.95H148.731C148.955 32.5207 149.16 31.858 149.347 30.962C149.543 30.0567 149.641 29.1747 149.641 28.316V26.776H154.793V32.95H155.731V36.296ZM153.603 32.95V27.826H150.803V28.428C150.803 29.2773 150.714 30.1407 150.537 31.018C150.369 31.886 150.178 32.53 149.963 32.95H153.603ZM158.52 34H157.33V26.776H158.52V29.646H162.132V26.776H163.322V34H162.132V30.696H158.52V34ZM172.067 33.048V33.972C171.825 34.0653 171.554 34.112 171.255 34.112C170.574 34.112 170.224 33.7573 170.205 33.048C169.524 33.8133 168.651 34.196 167.587 34.196C166.878 34.196 166.313 34.014 165.893 33.65C165.483 33.286 165.277 32.7867 165.277 32.152C165.277 30.864 166.131 30.1127 167.839 29.898C167.951 29.8793 168.115 29.8607 168.329 29.842C169.141 29.7487 169.641 29.6413 169.827 29.52C170.042 29.3707 170.149 29.114 170.149 28.75C170.149 27.9567 169.603 27.56 168.511 27.56C167.951 27.56 167.527 27.6767 167.237 27.91C166.948 28.134 166.775 28.5073 166.719 29.03H165.557C165.576 28.2553 165.851 27.6533 166.383 27.224C166.915 26.7947 167.648 26.58 168.581 26.58C169.599 26.58 170.355 26.8133 170.849 27.28C171.008 27.4293 171.125 27.6253 171.199 27.868C171.274 28.1107 171.316 28.3113 171.325 28.47C171.335 28.6193 171.339 28.848 171.339 29.156C171.339 29.5107 171.33 30.0473 171.311 30.766C171.293 31.4847 171.283 32.0213 171.283 32.376C171.283 32.6373 171.316 32.824 171.381 32.936C171.456 33.0387 171.587 33.09 171.773 33.09C171.848 33.09 171.946 33.076 172.067 33.048ZM170.149 30.248C170.065 30.3133 169.977 30.3693 169.883 30.416C169.79 30.4627 169.669 30.5 169.519 30.528C169.379 30.556 169.281 30.5793 169.225 30.598C169.179 30.6073 169.057 30.626 168.861 30.654C168.665 30.6727 168.563 30.682 168.553 30.682C168.264 30.7193 168.073 30.7473 167.979 30.766C167.895 30.7753 167.727 30.8127 167.475 30.878C167.233 30.9433 167.06 31.018 166.957 31.102C166.855 31.186 166.752 31.312 166.649 31.48C166.556 31.6387 166.509 31.83 166.509 32.054C166.509 32.4273 166.635 32.7213 166.887 32.936C167.149 33.1507 167.503 33.258 167.951 33.258C168.521 33.258 169.029 33.09 169.477 32.754C169.925 32.418 170.149 32.0213 170.149 31.564V30.248ZM179.461 34H178.271V31.046H176.689L174.407 34H172.825L175.317 31.004C174.785 30.92 174.351 30.696 174.015 30.332C173.688 29.9587 173.525 29.4827 173.525 28.904C173.525 28.232 173.725 27.7093 174.127 27.336C174.528 26.9627 175.083 26.776 175.793 26.776H179.461V34ZM178.271 27.826H176.171C175.219 27.826 174.743 28.1853 174.743 28.904C174.743 29.632 175.219 29.996 176.171 29.996H178.271V27.826ZM73.896 50.296H72.762V48H67.246V50.296H66.112V46.95H66.896C67.12 46.5207 67.3253 45.858 67.512 44.962C67.708 44.0567 67.806 43.1747 67.806 42.316V40.776H72.958V46.95H73.896V50.296ZM71.768 46.95V41.826H68.968V42.428C68.968 43.2773 68.8793 44.1407 68.702 45.018C68.534 45.886 68.3427 46.53 68.128 46.95H71.768ZM76.0691 41.602C76.7037 40.9113 77.5671 40.566 78.6591 40.566C79.7511 40.566 80.6004 40.8973 81.2071 41.56C81.8137 42.2227 82.1171 43.1513 82.1171 44.346C82.1171 45.5687 81.8137 46.5207 81.2071 47.202C80.6004 47.8833 79.7464 48.224 78.6451 48.224C77.5437 48.224 76.6804 47.888 76.0551 47.216C75.4297 46.544 75.1171 45.6107 75.1171 44.416C75.1171 43.2307 75.4344 42.2927 76.0691 41.602ZM80.2831 42.33C79.8817 41.8167 79.3311 41.56 78.6311 41.56C77.9311 41.56 77.3757 41.8167 76.9651 42.33C76.5544 42.8433 76.3491 43.5293 76.3491 44.388C76.3491 45.2747 76.5497 45.97 76.9511 46.474C77.3617 46.9687 77.9311 47.216 78.6591 47.216C79.3591 47.216 79.9051 46.964 80.2971 46.46C80.6984 45.956 80.8991 45.2607 80.8991 44.374C80.8991 43.5153 80.6937 42.834 80.2831 42.33ZM90.3101 45.368C90.2075 46.236 89.8761 46.9267 89.3161 47.44C88.7655 47.9533 88.0468 48.21 87.1601 48.21C86.0681 48.21 85.2235 47.874 84.6261 47.202C84.0288 46.5207 83.7301 45.6153 83.7301 44.486C83.7301 43.282 84.0428 42.33 84.6681 41.63C85.2935 40.9207 86.1381 40.566 87.2021 40.566C88.0888 40.566 88.7981 40.79 89.3301 41.238C89.8621 41.6767 90.1748 42.3067 90.2681 43.128H89.0361C88.8215 42.0827 88.2148 41.56 87.2161 41.56C86.5255 41.56 85.9795 41.8167 85.5781 42.33C85.1768 42.834 84.9761 43.52 84.9761 44.388C84.9761 45.2653 85.1675 45.956 85.5501 46.46C85.9328 46.964 86.4601 47.216 87.1321 47.216C87.6735 47.216 88.1121 47.0573 88.4481 46.74C88.7935 46.4227 89.0128 45.9653 89.1061 45.368H90.3101ZM97.7037 41.826H95.1137V48H93.9237V41.826H91.3337V40.776H97.7037V41.826ZM105.366 47.048V47.972C105.123 48.0653 104.853 48.112 104.554 48.112C103.873 48.112 103.523 47.7573 103.504 47.048C102.823 47.8133 101.95 48.196 100.886 48.196C100.177 48.196 99.612 48.014 99.192 47.65C98.7814 47.286 98.576 46.7867 98.576 46.152C98.576 44.864 99.43 44.1127 101.138 43.898C101.25 43.8793 101.413 43.8607 101.628 43.842C102.44 43.7487 102.939 43.6413 103.126 43.52C103.341 43.3707 103.448 43.114 103.448 42.75C103.448 41.9567 102.902 41.56 101.81 41.56C101.25 41.56 100.825 41.6767 100.536 41.91C100.247 42.134 100.074 42.5073 100.018 43.03H98.856C98.8747 42.2553 99.15 41.6533 99.682 41.224C100.214 40.7947 100.947 40.58 101.88 40.58C102.897 40.58 103.653 40.8133 104.148 41.28C104.307 41.4293 104.423 41.6253 104.498 41.868C104.573 42.1107 104.615 42.3113 104.624 42.47C104.633 42.6193 104.638 42.848 104.638 43.156C104.638 43.5107 104.629 44.0473 104.61 44.766C104.591 45.4847 104.582 46.0213 104.582 46.376C104.582 46.6373 104.615 46.824 104.68 46.936C104.755 47.0387 104.885 47.09 105.072 47.09C105.147 47.09 105.245 47.076 105.366 47.048ZM103.448 44.248C103.364 44.3133 103.275 44.3693 103.182 44.416C103.089 44.4627 102.967 44.5 102.818 44.528C102.678 44.556 102.58 44.5793 102.524 44.598C102.477 44.6073 102.356 44.626 102.16 44.654C101.964 44.6727 101.861 44.682 101.852 44.682C101.563 44.7193 101.371 44.7473 101.278 44.766C101.194 44.7753 101.026 44.8127 100.774 44.878C100.531 44.9433 100.359 45.018 100.256 45.102C100.153 45.186 100.051 45.312 99.948 45.48C99.8547 45.6387 99.808 45.83 99.808 46.054C99.808 46.4273 99.934 46.7213 100.186 46.936C100.447 47.1507 100.802 47.258 101.25 47.258C101.819 47.258 102.328 47.09 102.776 46.754C103.224 46.418 103.448 46.0213 103.448 45.564V44.248ZM107.02 48V40.776H110.366C110.842 40.776 111.248 40.818 111.584 40.902C111.92 40.9767 112.214 41.1493 112.466 41.42C112.718 41.6907 112.844 42.0593 112.844 42.526C112.844 43.2353 112.489 43.7533 111.78 44.08V44.094C112.209 44.178 112.545 44.3787 112.788 44.696C113.03 45.004 113.152 45.396 113.152 45.872C113.152 46.488 112.946 46.9967 112.536 47.398C112.125 47.7993 111.598 48 110.954 48H107.02ZM110.24 43.688C110.734 43.688 111.084 43.6087 111.29 43.45C111.504 43.282 111.612 43.0393 111.612 42.722C111.612 42.4047 111.509 42.1713 111.304 42.022C111.098 41.8727 110.744 41.798 110.24 41.798H108.182V43.688H110.24ZM108.182 44.696V46.978H110.73C111.103 46.978 111.392 46.866 111.598 46.642C111.812 46.418 111.92 46.1287 111.92 45.774C111.92 45.0553 111.453 44.696 110.52 44.696H108.182ZM121.595 48H120.083L117.451 44.444L116.317 45.55V48H115.127V40.776H116.317V44.22L119.621 40.776H121.217L118.305 43.618L121.595 48ZM129.345 47.048V47.972C129.102 48.0653 128.832 48.112 128.533 48.112C127.852 48.112 127.502 47.7573 127.483 47.048C126.802 47.8133 125.929 48.196 124.865 48.196C124.156 48.196 123.591 48.014 123.171 47.65C122.76 47.286 122.555 46.7867 122.555 46.152C122.555 44.864 123.409 44.1127 125.117 43.898C125.229 43.8793 125.392 43.8607 125.607 43.842C126.419 43.7487 126.918 43.6413 127.105 43.52C127.32 43.3707 127.427 43.114 127.427 42.75C127.427 41.9567 126.881 41.56 125.789 41.56C125.229 41.56 124.804 41.6767 124.515 41.91C124.226 42.134 124.053 42.5073 123.997 43.03H122.835C122.854 42.2553 123.129 41.6533 123.661 41.224C124.193 40.7947 124.926 40.58 125.859 40.58C126.876 40.58 127.632 40.8133 128.127 41.28C128.286 41.4293 128.402 41.6253 128.477 41.868C128.552 42.1107 128.594 42.3113 128.603 42.47C128.612 42.6193 128.617 42.848 128.617 43.156C128.617 43.5107 128.608 44.0473 128.589 44.766C128.57 45.4847 128.561 46.0213 128.561 46.376C128.561 46.6373 128.594 46.824 128.659 46.936C128.734 47.0387 128.864 47.09 129.051 47.09C129.126 47.09 129.224 47.076 129.345 47.048ZM127.427 44.248C127.343 44.3133 127.254 44.3693 127.161 44.416C127.068 44.4627 126.946 44.5 126.797 44.528C126.657 44.556 126.559 44.5793 126.503 44.598C126.456 44.6073 126.335 44.626 126.139 44.654C125.943 44.6727 125.84 44.682 125.831 44.682C125.542 44.7193 125.35 44.7473 125.257 44.766C125.173 44.7753 125.005 44.8127 124.753 44.878C124.51 44.9433 124.338 45.018 124.235 45.102C124.132 45.186 124.03 45.312 123.927 45.48C123.834 45.6387 123.787 45.83 123.787 46.054C123.787 46.4273 123.913 46.7213 124.165 46.936C124.426 47.1507 124.781 47.258 125.229 47.258C125.798 47.258 126.307 47.09 126.755 46.754C127.203 46.418 127.427 46.0213 127.427 45.564V44.248Z" fill="black"/>
</svg>
