<svg width="199" height="75" viewBox="0 0 199 75" fill="none" xmlns="http://www.w3.org/2000/svg">
<rect x="0.5" y="0.5" width="198" height="74" rx="3.5" stroke="#CCD5CE"/>
<path fill-rule="evenodd" clip-rule="evenodd" d="M35.8565 22.9088C36.7332 23.6968 37.669 24.7579 38.09 25.7825C38.3583 26.4355 38.4409 27.1348 38.0824 27.7374C37.7281 28.3331 36.9959 28.7425 35.8562 28.9513L35.8547 28.9516C34.728 29.152 33.209 29.5888 32.2591 30.2318C31.7816 30.5551 31.5006 30.8949 31.4307 31.2342C31.3653 31.5522 31.4681 31.9661 31.9915 32.493C33.4498 33.9611 33.8174 35.4896 33.4717 36.5911C33.2994 37.14 32.9485 37.5765 32.4783 37.8133C32.0057 38.0513 31.4387 38.074 30.8643 37.8428C30.3852 37.65 29.9674 37.5592 29.6331 37.5481C29.294 37.5368 29.069 37.6077 28.9422 37.7034C28.8309 37.7875 28.7669 37.9106 28.7839 38.1078C28.8023 38.3213 28.9187 38.6224 29.2027 39.0036C30.106 40.2164 31.6042 40.7839 32.2349 40.9121C32.4553 40.9494 32.7031 41.0194 32.9148 41.1336C33.1215 41.245 33.3455 41.4274 33.4153 41.712C33.4883 42.0092 33.3681 42.307 33.1301 42.5841C32.8918 42.8615 32.5015 43.1615 31.9261 43.4926C31.7372 43.6013 31.5914 43.694 31.4819 43.7718C32.1084 43.7621 33.2337 43.5499 34.1038 43.3483C34.9805 43.0106 36.2479 42.6499 37.1594 42.7187C37.613 42.7529 38.0843 42.903 38.2999 43.3379C38.5091 43.7602 38.4077 44.3186 38.077 44.9843C37.2671 46.6143 36.4812 48.2315 36.189 49.4545C36.0416 50.0717 36.0364 50.5259 36.1605 50.8189C36.2188 50.9567 36.307 51.0621 36.4344 51.1395C36.561 51.2164 36.7404 51.2739 36.9932 51.2918C43.8775 50.3123 49.1745 44.3555 49.176 37.155C49.1761 36.9966 49.1735 36.8387 49.1685 36.6814C48.1613 36.786 46.7945 36.792 45.6233 36.4957C44.9719 36.3308 44.3566 36.0664 43.8997 35.6508C43.4336 35.2266 43.1443 34.6545 43.1444 33.9175C43.1445 33.5193 43.1258 33.2345 43.0929 33.0344C43.0593 32.8308 43.0165 32.7523 42.9972 32.7283C42.994 32.7283 42.9896 32.7285 42.9839 32.729C42.9323 32.7341 42.8502 32.7612 42.7118 32.8246C42.6623 32.8472 42.6086 32.8734 42.5508 32.9015C42.0122 33.1634 41.1233 33.5958 40.0722 32.9611C39.8047 32.7995 39.6357 32.5661 39.565 32.2833C39.4971 32.0111 39.5252 31.7143 39.6052 31.4186C39.7642 30.8305 40.1545 30.1536 40.6378 29.4771C41.5313 28.2261 42.8065 26.8892 43.7936 25.958C41.5862 24.1988 38.8465 23.0874 35.8565 22.9088ZM44.2572 26.3438C43.2787 27.2618 42.0016 28.5963 41.1221 29.8276C40.6499 30.4886 40.3111 31.0945 40.1809 31.5762C40.1162 31.8154 40.1096 32.0002 40.1437 32.1367C40.1751 32.2625 40.2447 32.3647 40.3793 32.446C41.1423 32.9068 41.7405 32.6218 42.2869 32.3616C42.3469 32.333 42.4062 32.3047 42.4651 32.2778C42.6033 32.2145 42.7662 32.1468 42.9268 32.1312C43.111 32.1132 43.3035 32.1638 43.4502 32.3373C43.5761 32.486 43.642 32.6964 43.6815 32.9358C43.7223 33.1833 43.7412 33.5058 43.7411 33.9174C43.741 34.4758 43.9523 34.8888 44.2999 35.2051C44.6568 35.5298 45.1683 35.7611 45.769 35.9132C46.8628 36.1899 48.171 36.1839 49.1368 36.0809C48.8505 32.195 47.0189 28.7425 44.2572 26.3438ZM35.8318 51.4083C35.7399 51.3038 35.6668 51.1851 35.6116 51.0546C35.4091 50.5762 35.4545 49.9607 35.6089 49.3143C35.9205 48.0101 36.7439 46.325 37.5434 44.7158C37.8564 44.0857 37.8422 43.7602 37.766 43.6064C37.6961 43.4653 37.5088 43.3474 37.1146 43.3176C36.3371 43.259 35.1635 43.5813 34.2981 43.9165L34.2785 43.9241L34.2581 43.9289C33.3881 44.1311 32.1933 44.3615 31.4909 44.3723C31.3173 44.375 31.1441 44.3653 31.0068 44.324C30.9387 44.3035 30.85 44.2669 30.7777 44.194C30.6933 44.1089 30.6485 43.9912 30.6637 43.8632C30.6768 43.7536 30.7306 43.6645 30.7797 43.601C30.8314 43.534 30.8982 43.4693 30.9738 43.4065C31.1253 43.2806 31.3428 43.1366 31.6303 42.9711C32.1811 42.6542 32.5047 42.3941 32.6788 42.1913C32.8531 41.9884 32.8436 41.8865 32.8361 41.8564C32.8257 41.8137 32.7783 41.7415 32.633 41.6631C32.4946 41.5885 32.3122 41.534 32.1317 41.5037L32.1269 41.503L32.1223 41.502C31.4098 41.3587 29.7496 40.7391 28.7253 39.3641C28.4062 38.9357 28.2212 38.5285 28.1895 38.1599C28.1563 37.7751 28.2935 37.4427 28.5844 37.223C28.8597 37.015 29.2381 36.9339 29.653 36.9478C30.0728 36.9618 30.5597 37.0732 31.086 37.2851C31.5168 37.4585 31.905 37.4304 32.2116 37.2761C32.5207 37.1205 32.7733 36.8229 32.9028 36.4103C33.1607 35.5885 32.9257 34.2832 31.5695 32.9178C30.9671 32.3114 30.725 31.703 30.8465 31.1125C30.9637 30.5434 31.4017 30.0885 31.9264 29.7334C32.9807 29.0197 34.5984 28.5652 35.7507 28.3602C36.8223 28.1637 37.3467 27.8054 37.5706 27.429C37.7904 27.0594 37.7728 26.5821 37.5386 26.0123C37.0791 24.8938 35.8768 23.6551 34.8983 22.8838C27.9924 22.9341 22.2584 27.9544 21.0514 34.5678C21.8023 34.1632 22.7483 33.7445 23.6053 33.5574C24.1427 33.4402 24.6863 33.4044 25.1329 33.5575C25.3616 33.6358 25.5679 33.765 25.7294 33.9587C25.8907 34.1522 25.9946 34.395 26.042 34.6816C26.1584 35.3853 25.9505 35.8848 25.5983 36.2547C25.3178 36.5494 24.9432 36.7599 24.6355 36.9328C24.5841 36.9616 24.5346 36.9894 24.4877 37.0164C24.3134 37.1167 24.1721 37.2058 24.0654 37.2989C23.9607 37.3903 23.907 37.4708 23.8845 37.5484C23.8419 37.6954 23.8733 37.9907 24.3674 38.5877C25.2623 39.6689 25.257 41.1384 24.9438 42.4628C24.6515 43.699 24.0763 44.8777 23.5958 45.6519C26.1788 49.161 30.3222 51.4341 34.9937 51.433C35.2751 51.4329 35.5545 51.4247 35.8318 51.4083ZM23.2204 45.1167C23.6441 44.3911 24.1151 43.3743 24.3634 42.3239C24.6614 41.0638 24.6223 39.8342 23.909 38.9724C23.398 38.355 23.1783 37.8407 23.3117 37.3804C23.3773 37.1542 23.5184 36.9816 23.6745 36.8452C23.8287 36.7106 24.0141 36.5972 24.1918 36.495C24.2481 36.4626 24.3038 36.4311 24.3586 36.4001C24.6702 36.224 24.9544 36.0632 25.1676 35.8392C25.3937 35.6017 25.5379 35.2914 25.4535 34.7805C25.4205 34.5812 25.354 34.4429 25.2723 34.3449C25.1909 34.2472 25.0819 34.1746 24.9404 34.1261C24.6467 34.0254 24.231 34.0354 23.7315 34.1445C22.7918 34.3495 21.7004 34.8714 20.9345 35.3212C20.8575 35.9235 20.8176 36.5377 20.8175 37.1614C20.8168 40.1072 21.7024 42.8438 23.2204 45.1167ZM35 22.2827C38.5892 22.2819 41.8801 23.57 44.4396 25.7121C47.5021 28.2751 49.5193 32.0622 49.7505 36.3288C49.7653 36.6023 49.7728 36.8777 49.7727 37.1549C49.7711 44.6696 44.2351 50.8836 37.0454 51.8909C36.3746 51.9849 35.6896 52.0335 34.9935 52.0337C30.0494 52.0348 25.6731 49.5909 22.9922 45.8384C21.2475 43.3964 20.2201 40.3994 20.2208 37.1615C20.221 36.4607 20.2693 35.771 20.3627 35.0958C21.3632 27.8577 27.5356 22.2844 35 22.2827ZM21.0577 20.4939C21.1958 20.5843 21.2349 20.7704 21.145 20.9094L19.7264 23.1038L21.9675 25.9392C22.0701 26.069 22.0487 26.2579 21.9198 26.3612C21.7909 26.4645 21.6032 26.4432 21.5006 26.3134L19.3833 23.6345L14.8778 30.6037L15.7638 32.2894C15.8409 32.4359 15.7852 32.6177 15.6396 32.6954C15.494 32.773 15.3134 32.7171 15.2364 32.5705L14.3419 30.8687L12.2646 30.6313C12.1009 30.6126 11.9833 30.4638 12.0019 30.299C12.0206 30.1342 12.1684 30.0158 12.3321 30.0345L14.3826 30.2688L18.8833 23.307L15.5922 22.4436C15.4329 22.4017 15.3374 22.2377 15.379 22.0772C15.4206 21.9167 15.5836 21.8205 15.743 21.8623L19.2264 22.7762L20.645 20.5819C20.7349 20.4429 20.9197 20.4035 21.0577 20.4939Z" fill="black"/>
<path fill-rule="evenodd" clip-rule="evenodd" d="M34.4144 15.0076C34.6076 15.0025 34.8014 15 34.9959 15C35.2028 15 35.409 15.0029 35.6145 15.0086L35.5981 15.6093C35.3981 15.6038 35.1973 15.601 34.9959 15.601C34.8066 15.601 34.6179 15.6035 34.4298 15.6084L34.4144 15.0076ZM32.0965 15.1908C32.479 15.1401 32.8647 15.0992 33.2532 15.0685L33.2997 15.6676C32.9217 15.6975 32.5465 15.7373 32.1743 15.7867L32.0965 15.1908ZM36.8466 15.0773C37.2587 15.1119 37.6676 15.158 38.073 15.2152L37.9904 15.8103C37.5959 15.7547 37.1981 15.7099 36.7971 15.6762L36.8466 15.0773ZM29.8105 15.6193C30.186 15.5279 30.5652 15.4462 30.948 15.3745L31.057 15.9653C30.6847 16.0351 30.3158 16.1146 29.9505 16.2035L29.8105 15.6193ZM39.2898 15.422C39.6951 15.5028 40.0963 15.5949 40.4932 15.6977L40.3447 16.2797C39.9586 16.1797 39.5683 16.0902 39.1742 16.0116L39.2898 15.422ZM27.5824 16.2901C27.9465 16.1589 28.315 16.037 28.6875 15.9249L28.8582 16.5007C28.4958 16.6098 28.1374 16.7283 27.7833 16.8559L27.5824 16.2901ZM41.68 16.0417C42.0734 16.1679 42.462 16.305 42.8454 16.4526L42.6326 17.014C42.2597 16.8704 41.8817 16.7371 41.499 16.6143L41.68 16.0417ZM25.4377 17.1957C25.7861 17.0262 26.1397 16.8656 26.4981 16.7142L26.7285 17.2685C26.3799 17.4157 26.036 17.5719 25.697 17.7369L25.4377 17.1957ZM43.9858 16.9291C44.3621 17.0991 44.7328 17.2794 45.0975 17.4697L44.8234 18.0034C44.4686 17.8183 44.1079 17.6429 43.7419 17.4776L43.9858 16.9291ZM23.4005 18.3253C23.7294 18.1194 24.0641 17.9219 24.4042 17.7333L24.6917 18.2598C24.3607 18.4433 24.0351 18.6354 23.7151 18.8357L23.4005 18.3253ZM46.1773 18.0723C46.5319 18.2836 46.8802 18.5047 47.2218 18.735L46.89 19.2344C46.5577 19.0102 46.2189 18.7952 45.8738 18.5896L46.1773 18.0723ZM21.9565 19.3111C22.1125 19.1953 22.27 19.0815 22.4291 18.9698L22.7701 19.4628C22.6153 19.5715 22.462 19.6822 22.3102 19.7949L21.9565 19.3111ZM48.2278 19.4557C48.5566 19.7055 48.8783 19.9643 49.1924 20.2319L48.8074 20.6908C48.5018 20.4305 48.1888 20.1786 47.8688 19.9356L48.2278 19.4557ZM50.1125 21.061C50.4114 21.3459 50.7024 21.6392 50.9852 21.9405L50.5519 22.3534C50.2768 22.0603 49.9936 21.7749 49.7027 21.4976L50.1125 21.061ZM51.8079 22.8677C52.0734 23.1842 52.3303 23.5084 52.5781 23.8397L52.1019 24.2014C51.8608 23.879 51.6108 23.5636 51.3525 23.2556L51.8079 22.8677ZM53.2933 24.8535C53.5219 25.1977 53.7412 25.5487 53.9509 25.9061L53.4375 26.2119C53.2336 25.8642 53.0202 25.5227 52.7977 25.1879L53.2933 24.8535ZM54.5489 26.9942C54.7377 27.3617 54.9167 27.7353 55.0853 28.1146L54.5411 28.3604C54.377 27.9914 54.203 27.628 54.0193 27.2704L54.5489 26.9942ZM55.5582 29.2638C55.7047 29.6502 55.8407 30.0417 55.966 30.4382L55.3978 30.6205C55.2759 30.235 55.1436 29.854 55.0011 29.4782L55.5582 29.2638ZM56.3073 31.6342C56.4094 32.0341 56.5007 32.4385 56.5808 32.8468L55.9958 32.9634C55.9179 32.5662 55.8291 32.1729 55.7297 31.7838L56.3073 31.6342ZM13.8176 34.0063C13.8167 34.0122 13.8159 34.0182 13.815 34.0241L13.531 33.9823L13.2558 33.9593L13.2572 33.942L13.225 33.9372C13.2472 33.7839 13.2711 33.631 13.2964 33.4787L13.8876 33.5533L13.8501 34.0089L13.8176 34.0063ZM56.7861 34.073C56.8429 34.4816 56.8886 34.8937 56.9229 35.309L56.3286 35.3589C56.2952 34.9547 56.2508 34.5538 56.1956 34.1564L56.7861 34.073ZM13.4316 34.8917L13.1108 34.8581C13.0792 35.1646 13.0538 35.4729 13.0348 35.7829L13.3551 35.8029L13.7 35.8318L13.7751 34.9203L13.4316 34.8917ZM56.9911 36.5506C56.9968 36.7577 56.9996 36.9655 56.9996 37.174C56.9996 37.3825 56.9968 37.5903 56.9911 37.7974L56.395 37.7809C56.4006 37.5793 56.4033 37.377 56.4033 37.174C56.4033 36.9711 56.4006 36.7687 56.395 36.5672L56.9911 36.5506ZM13.0293 36.7108L13.0307 36.6935L13.3058 36.7164L13.5931 36.7224C13.593 36.7284 13.5928 36.7344 13.5927 36.7404L13.625 36.7432L13.5885 37.1864C13.5886 37.3852 13.5914 37.5834 13.5968 37.7809L13.0007 37.7974C12.995 37.5903 12.9922 37.3825 12.9922 37.174C12.9922 37.019 12.9938 36.8644 12.9969 36.7101L13.0293 36.7108ZM56.9229 39.039C56.8886 39.4543 56.8429 39.8664 56.7861 40.2749L56.1956 40.1916C56.2508 39.7942 56.2952 39.3933 56.3286 38.9891L56.9229 39.039ZM13.2056 40.275C13.1489 39.8665 13.1033 39.4543 13.0689 39.039L13.6632 38.9891C13.6966 39.3933 13.741 39.7942 13.7963 40.1916L13.2056 40.275ZM56.5808 41.5012C56.5007 41.9095 56.4094 42.3139 56.3073 42.7139L55.7297 42.5642C55.8291 42.1751 55.9179 41.7818 55.9958 41.3846L56.5808 41.5012ZM13.6845 42.7139C13.5824 42.3139 13.4912 41.9095 13.411 41.5012L13.996 41.3846C14.074 41.7818 14.1628 42.1751 14.262 42.5642L13.6845 42.7139ZM55.966 43.9098C55.8407 44.3063 55.7047 44.6978 55.5582 45.0843L55.0011 44.8698C55.1436 44.494 55.2759 44.113 55.3978 43.7275L55.966 43.9098ZM14.4336 45.0843C14.2872 44.6978 14.1511 44.3063 14.0258 43.9098L14.5941 43.7275C14.7159 44.113 14.8482 44.494 14.9907 44.8698L14.4336 45.0843ZM55.0853 46.2335C54.9167 46.6126 54.7378 46.9863 54.5489 47.3538L54.0193 47.0776C54.203 46.72 54.377 46.3565 54.5411 45.9877L55.0853 46.2335ZM15.4429 47.3538C15.2541 46.9863 15.0752 46.6127 14.9065 46.2335L15.4507 45.9877C15.6148 46.3566 15.7888 46.72 15.9725 47.0776L15.4429 47.3538ZM53.9509 48.4419C53.7412 48.7993 53.5219 49.1503 53.2933 49.4944L52.7977 49.1601C53.0202 48.8253 53.2336 48.4838 53.4376 48.1361L53.9509 48.4419ZM16.6985 49.4945C16.4699 49.1503 16.2506 48.7993 16.0409 48.4419L16.5542 48.1361C16.7582 48.4838 16.9716 48.8253 17.1941 49.1601L16.6985 49.4945ZM52.5781 50.5083C52.3303 50.8397 52.0734 51.1638 51.8079 51.4804L51.3525 51.0924C51.6108 50.7844 51.8608 50.469 52.1019 50.1466L52.5781 50.5083ZM18.1838 51.4804C17.9183 51.1638 17.6615 50.8397 17.4136 50.5083L17.8898 50.1466C18.131 50.469 18.3809 50.7844 18.6393 51.0924L18.1838 51.4804ZM50.9852 52.4075C50.7024 52.7088 50.4114 53.0021 50.1125 53.287L49.7027 52.8504C49.9936 52.5731 50.2768 52.2878 50.5519 51.9946L50.9852 52.4075ZM19.8794 53.287C19.5804 53.0021 19.2893 52.7088 19.0066 52.4076L19.4399 51.9946C19.715 52.2878 19.9982 52.5731 20.2891 52.8504L19.8794 53.287ZM49.1924 54.1161C48.8783 54.3837 48.5566 54.6426 48.2278 54.8923L47.8688 54.4124C48.1888 54.1694 48.5018 53.9175 48.8075 53.6572L49.1924 54.1161ZM21.764 54.8923C21.4352 54.6426 21.1136 54.3837 20.7994 54.1161L21.1844 53.6572C21.4901 53.9175 21.803 54.1694 22.1229 54.4124L21.764 54.8923ZM47.2218 55.6129C46.8802 55.8434 46.5319 56.0644 46.1773 56.2757L45.8738 55.7584C46.2189 55.5528 46.5577 55.3378 46.89 55.1136L47.2218 55.6129ZM23.8145 56.2757C23.4598 56.0644 23.1116 55.8434 22.7701 55.613L23.1018 55.1136C23.4341 55.3378 23.7729 55.5528 24.118 55.7584L23.8145 56.2757ZM45.0975 56.8784C44.7328 57.0686 44.3621 57.2489 43.9858 57.4189L43.7419 56.8705C44.1079 56.7051 44.4686 56.5298 44.8234 56.3446L45.0975 56.8784ZM26.0061 57.4189C25.6297 57.2489 25.259 57.0686 24.8943 56.8784L25.1684 56.3446C25.5232 56.5298 25.8839 56.7051 26.2499 56.8705L26.0061 57.4189ZM28.3118 58.3064C27.9184 58.1801 27.5299 58.043 27.1464 57.8954L27.3592 57.334C27.7322 57.4776 28.1102 57.611 28.4928 57.7338L28.3118 58.3064ZM42.8454 57.8954C42.462 58.043 42.0734 58.1801 41.68 58.3064L41.499 57.7338C41.8817 57.611 42.2597 57.4776 42.6326 57.334L42.8454 57.8954ZM40.4932 58.6503C40.0963 58.7532 39.6951 58.8452 39.2898 58.926L39.1742 58.3364C39.5683 58.2578 39.9586 58.1684 40.3447 58.0683L40.4932 58.6503ZM30.7019 58.926C30.2967 58.8452 29.8955 58.7532 29.4986 58.6503L29.6472 58.0683C30.0332 58.1684 30.4235 58.2578 30.8177 58.3364L30.7019 58.926ZM38.073 59.1329C37.6676 59.1901 37.2587 59.2361 36.8466 59.2707L36.7971 58.6718C37.1981 58.6381 37.596 58.5933 37.9904 58.5377L38.073 59.1329ZM33.1452 59.2707C32.7331 59.2361 32.3241 59.1901 31.9188 59.1329L32.0014 58.5378C32.3958 58.5933 32.7937 58.6381 33.1947 58.6718L33.1452 59.2707ZM34.9959 59.348C34.789 59.348 34.5828 59.3452 34.3773 59.3394L34.3938 58.7387C34.5938 58.7442 34.7945 58.747 34.9959 58.747C35.1973 58.747 35.3981 58.7442 35.5981 58.7387L35.6146 59.3394C35.409 59.3452 35.2028 59.348 34.9959 59.348Z" fill="black"/>
<path d="M76.682 24.032V34H75.772V27.98C75.772 26.93 75.814 25.894 75.884 24.844C75.688 25.446 75.464 26.062 75.226 26.65L72.286 34H71.432L68.45 26.734C68.198 26.132 67.988 25.516 67.792 24.9C67.862 25.922 67.904 26.93 67.904 27.952V34H66.994V24.032H68.282L71.18 31.144C71.432 31.76 71.642 32.39 71.866 33.02C72.09 32.404 72.286 31.774 72.524 31.172L75.38 24.032H76.682ZM79.9581 23.99V25.432H79.0761V23.99H79.9581ZM79.9581 26.804V34H79.0761V26.804H79.9581ZM85.0341 30.388L82.3741 34H81.2961L84.4181 29.8L81.6041 26.804H82.7941L86.1121 30.472V26.804H86.9941V30.458L90.3121 26.804H91.5021L88.6881 29.8L91.8101 34H90.7321L88.0721 30.388L86.9941 31.508V34H86.1121V31.508L85.0341 30.388ZM98.995 34H98.113V30.612H94.011V34H93.129V26.804H94.011V29.87H98.113V26.804H98.995V34ZM107.537 33.286V33.958C107.299 34.042 107.089 34.07 106.837 34.07C105.983 34.07 105.899 33.412 105.899 32.754C105.311 33.692 104.401 34.196 103.183 34.196C101.713 34.196 100.831 33.44 100.831 32.18C100.831 30.864 101.727 30.136 103.505 29.954C104.639 29.842 105.255 29.814 105.605 29.576C105.787 29.45 105.857 29.254 105.857 28.89C105.857 27.7 105.129 27.336 103.981 27.336C102.763 27.336 102.133 27.868 102.021 29.03H101.181C101.251 27.49 102.301 26.608 104.079 26.608C105.703 26.608 106.725 27.322 106.725 28.68V32.6C106.725 33.034 106.711 33.328 107.201 33.328C107.313 33.328 107.383 33.328 107.537 33.286ZM105.857 30.08C105.577 30.388 104.863 30.458 103.897 30.584C102.987 30.71 101.755 30.92 101.755 32.096C101.755 32.936 102.399 33.468 103.407 33.468C104.723 33.468 105.857 32.628 105.857 31.256V30.08ZM109.882 26.804V28.19C110.4 27.126 111.254 26.594 112.458 26.594C114.418 26.594 115.706 28.12 115.706 30.43C115.706 32.712 114.418 34.224 112.486 34.224C111.324 34.224 110.428 33.706 109.938 32.67V36.688H109.084V26.804H109.882ZM112.346 27.322C110.834 27.322 109.91 28.484 109.91 30.416C109.91 32.306 110.862 33.482 112.374 33.482C113.844 33.482 114.81 32.278 114.81 30.43C114.81 28.54 113.858 27.322 112.346 27.322ZM120.707 26.594C122.779 26.594 124.095 28.078 124.095 30.43C124.095 32.754 122.793 34.21 120.707 34.21C118.607 34.21 117.277 32.726 117.277 30.402C117.277 28.092 118.621 26.594 120.707 26.594ZM120.693 27.336C119.167 27.336 118.173 28.54 118.173 30.402C118.173 32.292 119.139 33.482 120.721 33.482C122.247 33.482 123.213 32.292 123.213 30.416C123.213 28.54 122.233 27.336 120.693 27.336ZM132.539 36.296H131.657V34H125.861V36.296H124.979V33.258H125.833C126.533 31.97 126.827 30.262 126.827 27.728V26.804H131.531V33.258H132.539V36.296ZM130.649 33.258V27.546H127.681V28.022C127.681 30.416 127.275 32.208 126.743 33.258H130.649ZM139.926 34H139.044V30.612H134.942V34H134.06V26.804H134.942V29.87H139.044V26.804H139.926V34ZM148.467 33.286V33.958C148.229 34.042 148.019 34.07 147.767 34.07C146.913 34.07 146.829 33.412 146.829 32.754C146.241 33.692 145.331 34.196 144.113 34.196C142.643 34.196 141.761 33.44 141.761 32.18C141.761 30.864 142.657 30.136 144.435 29.954C145.569 29.842 146.185 29.814 146.535 29.576C146.717 29.45 146.787 29.254 146.787 28.89C146.787 27.7 146.059 27.336 144.911 27.336C143.693 27.336 143.063 27.868 142.951 29.03H142.111C142.181 27.49 143.231 26.608 145.009 26.608C146.633 26.608 147.655 27.322 147.655 28.68V32.6C147.655 33.034 147.641 33.328 148.131 33.328C148.243 33.328 148.313 33.328 148.467 33.286ZM146.787 30.08C146.507 30.388 145.793 30.458 144.827 30.584C143.917 30.71 142.685 30.92 142.685 32.096C142.685 32.936 143.329 33.468 144.337 33.468C145.653 33.468 146.787 32.628 146.787 31.256V30.08ZM73.644 50.296H72.762V48H66.966V50.296H66.084V47.258H66.938C67.638 45.97 67.932 44.262 67.932 41.728V40.804H72.636V47.258H73.644V50.296ZM71.754 47.258V41.546H68.786V42.022C68.786 44.416 68.38 46.208 67.848 47.258H71.754ZM78.2453 40.594C80.3173 40.594 81.6333 42.078 81.6333 44.43C81.6333 46.754 80.3313 48.21 78.2453 48.21C76.1453 48.21 74.8153 46.726 74.8153 44.402C74.8153 42.092 76.1593 40.594 78.2453 40.594ZM78.2313 41.336C76.7053 41.336 75.7113 42.54 75.7113 44.402C75.7113 46.292 76.6773 47.482 78.2593 47.482C79.7853 47.482 80.7513 46.292 80.7513 44.416C80.7513 42.54 79.7713 41.336 78.2313 41.336ZM89.5526 45.424C89.3146 47.062 88.2506 48.21 86.5146 48.21C84.4986 48.21 83.1826 46.74 83.1826 44.472C83.1826 42.12 84.5126 40.594 86.5426 40.594C88.2086 40.594 89.3006 41.518 89.4966 43.072H88.6006C88.3766 41.938 87.6626 41.322 86.5566 41.322C85.0446 41.322 84.0926 42.526 84.0926 44.402C84.0926 46.278 85.0166 47.482 86.4726 47.482C87.6766 47.482 88.4886 46.726 88.6706 45.424H89.5526ZM96.7284 41.546H94.0544V48H93.1724V41.546H90.4984V40.804H96.7284V41.546ZM104.187 47.286V47.958C103.949 48.042 103.739 48.07 103.487 48.07C102.633 48.07 102.549 47.412 102.549 46.754C101.961 47.692 101.051 48.196 99.833 48.196C98.363 48.196 97.481 47.44 97.481 46.18C97.481 44.864 98.377 44.136 100.155 43.954C101.289 43.842 101.905 43.814 102.255 43.576C102.437 43.45 102.507 43.254 102.507 42.89C102.507 41.7 101.779 41.336 100.631 41.336C99.413 41.336 98.783 41.868 98.671 43.03H97.831C97.901 41.49 98.951 40.608 100.729 40.608C102.353 40.608 103.375 41.322 103.375 42.68V46.6C103.375 47.034 103.361 47.328 103.851 47.328C103.963 47.328 104.033 47.328 104.187 47.286ZM102.507 44.08C102.227 44.388 101.513 44.458 100.547 44.584C99.637 44.71 98.405 44.92 98.405 46.096C98.405 46.936 99.049 47.468 100.057 47.468C101.373 47.468 102.507 46.628 102.507 45.256V44.08ZM111.643 45.984C111.643 47.286 110.719 48 109.053 48H105.679V40.804H109.053C110.523 40.804 111.363 41.406 111.363 42.512C111.363 43.366 110.901 43.94 110.117 44.164V44.192C111.069 44.36 111.643 44.948 111.643 45.984ZM110.481 42.736C110.481 41.952 109.977 41.546 108.955 41.546H106.561V43.898H108.955C109.949 43.898 110.481 43.464 110.481 42.736ZM110.761 45.886C110.761 45.06 110.159 44.584 108.955 44.584H106.561V47.258H108.955C110.187 47.258 110.761 46.796 110.761 45.886ZM116.509 43.604L119.757 48H118.651L115.865 44.206L114.395 45.564V48H113.513V40.804H114.395V44.486L118.399 40.804H119.575L116.509 43.604ZM127.386 47.286V47.958C127.148 48.042 126.938 48.07 126.686 48.07C125.832 48.07 125.748 47.412 125.748 46.754C125.16 47.692 124.25 48.196 123.032 48.196C121.562 48.196 120.68 47.44 120.68 46.18C120.68 44.864 121.576 44.136 123.354 43.954C124.488 43.842 125.104 43.814 125.454 43.576C125.636 43.45 125.706 43.254 125.706 42.89C125.706 41.7 124.978 41.336 123.83 41.336C122.612 41.336 121.982 41.868 121.87 43.03H121.03C121.1 41.49 122.15 40.608 123.928 40.608C125.552 40.608 126.574 41.322 126.574 42.68V46.6C126.574 47.034 126.56 47.328 127.05 47.328C127.162 47.328 127.232 47.328 127.386 47.286ZM125.706 44.08C125.426 44.388 124.712 44.458 123.746 44.584C122.836 44.71 121.604 44.92 121.604 46.096C121.604 46.936 122.248 47.468 123.256 47.468C124.572 47.468 125.706 46.628 125.706 45.256V44.08Z" fill="black"/>
</svg>
