<svg width="148" height="75" viewBox="0 0 148 75" fill="none" xmlns="http://www.w3.org/2000/svg">
<rect x="0.5" y="0.5" width="147" height="74" rx="3.5" stroke="#111111"/>
<path fill-rule="evenodd" clip-rule="evenodd" d="M67.7695 25.9304C67.7695 25.9304 67.7695 25.9304 69.8755 25.9304C70.6495 25.9304 71.0274 26.3009 71.0274 27.1477C71.0274 27.1477 71.0274 27.1477 71.0274 30.1114C71.0274 30.1114 71.0274 30.1114 75.1493 30.1114C75.1493 30.1114 75.1493 30.1114 75.1493 27.1477C75.1493 26.3009 75.5273 25.9304 76.3913 25.9304C76.3913 25.9304 76.3913 25.9304 78.4072 25.9304C78.4072 25.9304 78.4072 25.9304 78.4072 27.8886C78.4072 27.8886 78.4072 27.8886 77.5433 27.8886L77.4533 27.9768C77.4533 27.9768 77.4533 27.9768 77.4533 36.3388C77.4533 36.3388 77.4533 36.3388 75.1493 36.3388C75.1493 36.3388 75.1493 36.3388 75.1493 32.1578C75.1493 32.1578 75.1493 32.1578 71.0274 32.1578C71.0274 32.1578 71.0274 32.1578 71.0274 36.3388C71.0274 36.3388 71.0274 36.3388 68.7235 36.3388C68.7235 36.3388 68.7235 36.3388 68.7235 27.9768C68.7235 27.9768 68.7235 27.8886 68.6335 27.8886C68.6335 27.8886 68.6335 27.8886 67.7695 27.8886C67.7695 27.8886 67.7695 27.8886 67.7695 25.9304Z" fill="#111111"/>
<path fill-rule="evenodd" clip-rule="evenodd" d="M84.4388 25.7539H84.4928V27.9061L84.4388 27.8885C82.7108 27.8885 81.3789 29.2822 81.3789 31.0463C81.3789 32.8986 82.7108 34.3981 84.4388 34.3981L84.4928 34.3805V36.5151L84.4388 36.5327C81.3789 36.5327 78.877 34.1159 78.877 31.0463C78.877 28.0826 81.3789 25.7539 84.4388 25.7539Z" fill="#111111"/>
<path fill-rule="evenodd" clip-rule="evenodd" d="M84.4902 25.7539L85.5522 25.8598C88.0901 26.3361 89.9981 28.453 89.9981 31.0463C89.9981 33.7278 88.0901 35.9153 85.5522 36.4092L84.4902 36.5151V34.3805L85.6602 34.1335C86.7942 33.6219 87.6041 32.4399 87.6041 31.0463C87.6041 29.7232 86.7942 28.6118 85.6602 28.1355L84.4902 27.9061V25.7539Z" fill="#111111"/>
<path fill-rule="evenodd" clip-rule="evenodd" d="M90.4668 25.9304C90.4668 25.9304 90.4668 25.9304 93.6887 25.9304H95.2187V27.8886H95.0747C94.8767 27.8886 94.4987 27.8886 93.7247 27.8886C93.7247 27.8886 93.7247 27.8886 93.7247 30.0232C93.7247 30.0232 93.7247 30.0232 94.3727 30.0232H95.2187V31.8755H94.7327C94.4807 31.8755 94.1567 31.8755 93.7247 31.8755C93.7247 31.8755 93.7247 31.8755 93.7247 34.2042C93.7247 34.2924 93.7247 34.2924 93.8327 34.2924C93.8327 34.2924 93.8327 34.2924 94.5167 34.2924H95.2187V36.3388H95.0207C94.6607 36.3388 93.9767 36.3388 92.5907 36.3388C91.8168 36.3388 91.4388 35.9683 91.4388 35.1392V27.8886C91.4388 27.8886 91.4388 27.8886 90.4668 27.8886C90.4668 27.8886 90.4668 27.8886 90.4668 25.9304Z" fill="#111111"/>
<path fill-rule="evenodd" clip-rule="evenodd" d="M95.2188 25.9304H95.2547C97.3787 25.9304 98.6207 27.0595 98.6207 28.7354C98.6207 29.7409 98.1347 30.3937 97.6667 30.87C98.5307 31.2404 99.0886 32.1578 99.0886 33.181C99.0886 35.1392 97.5587 36.3388 95.3627 36.3388C95.3627 36.3388 95.3627 36.3388 95.3267 36.3388H95.2188V34.2924H95.4527C96.2267 34.2924 96.6947 33.8337 96.6947 33.0928C96.6947 32.3518 96.2267 31.8755 95.4527 31.8755C95.4527 31.8755 95.4527 31.8755 95.2367 31.8755H95.2188V30.0232H95.2547C95.9387 30.0232 96.3167 29.5645 96.3167 28.9118C96.3167 28.2591 95.9387 27.8886 95.2547 27.8886C95.2547 27.8886 95.2547 27.8886 95.2367 27.8886H95.2188V25.9304Z" fill="#111111"/>
<path fill-rule="evenodd" clip-rule="evenodd" d="M103.5 25.9304C103.5 25.9304 103.5 25.9304 104.472 25.9304H104.652V28.9118C104.562 29.1058 104.454 29.3705 104.454 29.6527C104.454 29.6527 104.454 29.6527 103.698 31.7873C103.698 31.7873 103.698 31.7873 104.508 31.7873H104.652V33.7455H104.13C103.842 33.7455 103.5 33.7455 103.122 33.7455C103.122 33.7455 103.122 33.7455 102.456 35.4214C102.258 36.0565 101.88 36.3388 101.106 36.3388C101.106 36.3388 101.106 36.3388 99.666 36.3388C99.666 36.3388 99.666 36.3388 99.666 34.2924C99.666 34.2924 99.666 34.2924 100.152 34.2924C100.35 34.2924 100.35 34.2924 100.44 34.2042C100.44 34.2042 100.44 34.2042 103.5 25.9304Z" fill="#111111"/>
<path fill-rule="evenodd" clip-rule="evenodd" d="M104.65 25.9304H105.802C105.802 25.9304 105.802 25.9304 108.862 34.2042C108.952 34.2924 108.952 34.2924 109.15 34.2924C109.15 34.2924 109.15 34.2924 109.528 34.2924C109.528 34.2924 109.528 34.2924 109.528 36.3388C109.528 36.3388 109.528 36.3388 108.196 36.3388C107.422 36.3388 107.044 36.0565 106.846 35.3156C106.846 35.3156 106.846 35.3156 106.18 33.7455C106.18 33.7455 106.18 33.7455 104.884 33.7455H104.65V31.7873H105.604C105.604 31.7873 105.604 31.7873 104.848 29.6527C104.848 29.3705 104.74 29.1058 104.65 28.9118V25.9304Z" fill="#111111"/>
<path fill-rule="evenodd" clip-rule="evenodd" d="M67.7695 39.3025C67.7695 39.3025 67.7695 39.3025 76.1033 39.3025C76.8773 39.3025 77.3453 39.6906 77.3453 40.5197C77.3453 40.5197 77.3453 40.5197 77.3453 47.5762C77.3453 47.6644 77.3453 47.6644 77.4533 47.6644C77.4533 47.6644 77.4533 47.6644 78.2092 47.6644C78.2092 47.6644 78.2092 47.6644 78.2092 49.7108C78.2092 49.7108 78.2092 49.7108 76.2113 49.7108C75.3473 49.7108 74.9513 49.3404 74.9513 48.5112C74.9513 48.5112 74.9513 48.5112 74.9513 41.3665C74.9513 41.3665 74.9513 41.2607 74.8613 41.2607C74.8613 41.2607 74.8613 41.2607 71.0274 41.2607C71.0274 41.2607 71.0274 41.2607 71.0274 49.7108C71.0274 49.7108 71.0274 49.7108 68.7235 49.7108C68.7235 49.7108 68.7235 49.7108 68.7235 41.2607C68.7235 41.2607 68.7235 41.2607 67.7695 41.2607C67.7695 41.2607 67.7695 41.2607 67.7695 39.3025Z" fill="#111111"/>
<path fill-rule="evenodd" clip-rule="evenodd" d="M84.257 39.1262H84.293V41.2785L84.257 41.2608C82.5111 41.2608 81.1791 42.6545 81.1791 44.4186C81.1791 46.2709 82.5111 47.7704 84.257 47.7704L84.293 47.7528V49.8874L84.257 49.905C81.1791 49.905 78.7852 47.4882 78.7852 44.4186C78.7852 41.4549 81.1791 39.1262 84.257 39.1262Z" fill="#111111"/>
<path fill-rule="evenodd" clip-rule="evenodd" d="M84.293 39.1262L85.3909 39.2321C87.9649 39.7084 89.8008 41.8253 89.8008 44.4186C89.8008 47.1001 87.9649 49.2876 85.3909 49.7815L84.293 49.8874V47.7528L85.5169 47.5058C86.6509 46.9942 87.4069 45.8123 87.4069 44.4186C87.4069 43.0955 86.6509 41.9841 85.5169 41.5078L84.293 41.2785V39.1262Z" fill="#111111"/>
<path fill-rule="evenodd" clip-rule="evenodd" d="M90.2891 39.3025C90.2891 39.3025 90.2891 39.3025 92.395 39.3025C93.169 39.3025 93.547 39.6906 93.547 40.5197C93.547 40.5197 93.547 40.5197 93.547 47.5762C93.547 47.6644 93.547 47.6644 93.637 47.6644C93.637 47.6644 93.637 47.6644 96.4089 47.6644C96.4089 47.6644 96.4089 47.6644 96.4089 39.3025C96.4089 39.3025 96.4089 39.3025 98.7128 39.3025C98.7128 39.3025 98.7128 39.3025 98.7128 47.6644C98.7128 47.6644 98.7128 47.6644 101.503 47.6644C101.593 47.6644 101.593 47.6644 101.593 47.5762C101.593 47.5762 101.593 47.5762 101.593 40.5197C101.593 39.6906 101.971 39.3025 102.745 39.3025C102.745 39.3025 102.745 39.3025 104.851 39.3025C104.851 39.3025 104.851 39.3025 104.851 41.2607C104.851 41.2607 104.851 41.2607 103.987 41.2607C103.879 41.2607 103.879 41.3665 103.879 41.3665C103.879 41.3665 103.879 41.3665 103.879 48.5112C103.879 49.3404 103.501 49.7108 102.745 49.7108C102.745 49.7108 102.745 49.7108 92.485 49.7108C91.621 49.7108 91.243 49.3404 91.243 48.5112C91.243 48.5112 91.243 48.5112 91.243 41.3665C91.243 41.3665 91.243 41.2607 91.153 41.2607C91.153 41.2607 91.153 41.2607 90.2891 41.2607C90.2891 41.2607 90.2891 41.2607 90.2891 39.3025Z" fill="#111111"/>
<path fill-rule="evenodd" clip-rule="evenodd" d="M106.667 39.3025C106.667 39.3025 106.667 39.3025 113.849 39.3025C114.713 39.3025 115.001 39.6906 115.001 40.4315C115.001 40.4315 115.001 40.4315 115.001 42.1957H112.895C112.895 42.1957 112.895 42.1957 112.895 41.3665C112.895 41.2607 112.895 41.2607 112.787 41.2607C112.787 41.2607 112.787 41.2607 111.455 41.2607C111.455 41.2607 111.455 41.2607 111.455 49.7108C111.455 49.7108 111.455 49.7108 109.151 49.7108C109.151 49.7108 109.151 49.7108 109.151 41.2607C109.151 41.2607 109.151 41.2607 107.819 41.2607C107.711 41.2607 107.711 41.2607 107.711 41.3665C107.711 41.3665 107.711 41.3665 107.711 42.1957C107.711 42.1957 107.711 42.1957 105.605 42.1957C105.605 42.1957 105.605 42.1957 105.605 40.4315C105.605 39.6906 105.893 39.3025 106.667 39.3025Z" fill="#111111"/>
<path fill-rule="evenodd" clip-rule="evenodd" d="M117.973 39.3025C117.973 39.3025 117.973 39.3025 118.945 39.3025H119.125V42.2839C119.017 42.4779 118.927 42.7425 118.927 43.0248C118.927 43.0248 118.927 43.0248 118.153 45.1594C118.153 45.1594 118.153 45.1594 118.963 45.1594H119.125V47.1176H118.603C118.297 47.1176 117.973 47.1176 117.577 47.1176C117.577 47.1176 117.577 47.1176 116.911 48.6876C116.731 49.4286 116.335 49.7108 115.579 49.7108C115.579 49.7108 115.579 49.7108 114.139 49.7108C114.139 49.7108 114.139 49.7108 114.139 47.6644C114.139 47.6644 114.139 47.6644 114.625 47.6644C114.805 47.6644 114.805 47.6644 114.913 47.5762C114.913 47.5762 114.913 47.5762 117.973 39.3201V39.3025Z" fill="#111111"/>
<path fill-rule="evenodd" clip-rule="evenodd" d="M119.121 39.3025H120.255C120.255 39.3025 120.255 39.3025 123.333 47.5762C123.423 47.6644 123.423 47.6644 123.621 47.6644H123.999C123.999 47.6644 123.999 47.6644 123.999 49.7108C123.999 49.7108 123.999 49.7108 122.667 49.7108C121.893 49.7108 121.515 49.4286 121.317 48.6876C121.317 48.6876 121.317 48.6876 120.651 47.1176C120.651 47.1176 120.651 47.1176 119.355 47.1176H119.121V45.1594H120.075C120.075 45.1594 120.075 45.1594 119.301 43.0248C119.301 42.7425 119.211 42.4779 119.121 42.2839V39.3025Z" fill="#111111"/>
<path fill-rule="evenodd" clip-rule="evenodd" d="M53.0101 30.3586C53.1181 30.3233 53.2621 30.3939 53.4061 30.5879C53.4061 30.5879 53.4061 30.5879 59.9219 36.7976C60.2999 37.1681 60.2999 37.7326 59.9219 38.0149C59.9219 38.0149 59.9219 38.0149 53.4061 44.3305C53.2621 44.5069 53.1181 44.5598 53.0101 44.5069C52.9021 44.454 52.8301 44.2775 52.8301 44.0482V30.7643C52.8301 30.535 52.9021 30.3939 53.0101 30.3586Z" fill="#111111"/>
<path fill-rule="evenodd" clip-rule="evenodd" d="M41.8699 20.0032H42.3379L42.7699 20.1796C42.7699 20.1796 42.7699 20.1796 49.4837 26.6892C49.7717 27.0597 49.6637 27.3243 49.1957 27.3243C49.1957 27.3243 49.1957 27.3243 46.4058 27.3243C45.9378 27.3243 45.5418 27.7124 45.5418 28.1711C45.5418 28.1711 45.5418 28.1711 45.5418 33.0048C45.5418 33.4634 45.1638 33.8339 44.5879 33.8339C44.5879 33.8339 44.5879 33.8339 39.71 33.8339C39.224 33.8339 38.846 33.4634 38.846 33.0048C38.846 33.0048 38.846 33.0048 38.846 28.1711C38.846 27.7124 38.468 27.3243 37.982 27.3243H35.0121C34.5261 27.3243 34.4361 27.0597 34.7241 26.6892C34.7241 26.6892 34.7241 26.6892 41.4379 20.1796L41.8699 20.0032Z" fill="#111111"/>
<path fill-rule="evenodd" clip-rule="evenodd" d="M31.3753 30.2173C31.4833 30.2879 31.5553 30.4467 31.5553 30.676V44.2245C31.5553 44.4715 31.4833 44.6126 31.3753 44.6479C31.2493 44.7008 31.0873 44.6479 30.8893 44.5067C30.8893 44.5067 30.8893 44.5067 24.2835 38.0148C23.9055 37.7325 23.9055 37.168 24.2835 36.7975C24.2835 36.7975 24.2835 36.7975 30.8893 30.3937C31.0873 30.2173 31.2493 30.1644 31.3753 30.2173Z" fill="#111111"/>
<path fill-rule="evenodd" clip-rule="evenodd" d="M39.7089 40.8904C39.7089 40.8904 39.7089 40.8904 44.5867 40.8904C45.1627 40.8904 45.5587 41.2608 45.5587 41.7372C45.5587 41.7372 45.5587 41.7372 45.5587 46.8355C45.5587 47.4 45.9367 47.7705 46.4047 47.7705H48.9966C49.4826 47.7705 49.6626 48.0351 49.2846 48.3173C49.2846 48.3173 49.2846 48.3173 42.7688 54.7211C42.5708 54.9152 42.3368 55.0034 42.1028 55.0034C41.8688 55.0034 41.6168 54.9152 41.4368 54.7211C41.4368 54.7211 41.4368 54.7211 34.921 48.3173C34.525 48.0351 34.723 47.7705 35.191 47.7705C35.191 47.7705 35.191 47.7705 37.9809 47.7705C38.4669 47.7705 38.8449 47.4 38.8449 46.8355C38.8449 46.8355 38.8449 46.8355 38.8449 41.7372C38.8449 41.2608 39.2229 40.8904 39.7089 40.8904Z" fill="#111111"/>
</svg>
