<svg width="199" height="75" viewBox="0 0 199 75" fill="none" xmlns="http://www.w3.org/2000/svg">
<rect x="0.5" y="0.5" width="198" height="74" rx="3.5" stroke="#111111"/>
<path d="M73.548 30.234C73.436 31.494 72.9973 32.4787 72.232 33.188C71.476 33.888 70.4773 34.238 69.236 34.238C67.8173 34.238 66.6927 33.7713 65.862 32.838C65.0313 31.8953 64.616 30.626 64.616 29.03C64.616 27.5367 65.0313 26.2953 65.862 25.306C66.702 24.3073 67.8593 23.808 69.334 23.808C70.3887 23.808 71.3173 24.0927 72.12 24.662C72.9227 25.2313 73.3707 26.02 73.464 27.028H72.148C71.9987 26.3747 71.672 25.866 71.168 25.502C70.664 25.1287 70.0433 24.942 69.306 24.942C68.1953 24.942 67.3553 25.334 66.786 26.118C66.226 26.902 65.946 27.868 65.946 29.016C65.946 30.2853 66.2447 31.284 66.842 32.012C67.4393 32.74 68.256 33.104 69.292 33.104C70.1413 33.104 70.818 32.8613 71.322 32.376C71.826 31.8813 72.1293 31.1673 72.232 30.234H73.548ZM81.9575 33.048V33.972C81.7148 34.0653 81.4442 34.112 81.1455 34.112C80.4642 34.112 80.1142 33.7573 80.0955 33.048C79.4142 33.8133 78.5415 34.196 77.4775 34.196C76.7682 34.196 76.2035 34.014 75.7835 33.65C75.3728 33.286 75.1675 32.7867 75.1675 32.152C75.1675 30.864 76.0215 30.1127 77.7295 29.898C77.8415 29.8793 78.0048 29.8607 78.2195 29.842C79.0315 29.7487 79.5308 29.6413 79.7175 29.52C79.9322 29.3707 80.0395 29.114 80.0395 28.75C80.0395 27.9567 79.4935 27.56 78.4015 27.56C77.8415 27.56 77.4168 27.6767 77.1275 27.91C76.8382 28.134 76.6655 28.5073 76.6095 29.03H75.4475C75.4662 28.2553 75.7415 27.6533 76.2735 27.224C76.8055 26.7947 77.5382 26.58 78.4715 26.58C79.4888 26.58 80.2448 26.8133 80.7395 27.28C80.8982 27.4293 81.0148 27.6253 81.0895 27.868C81.1642 28.1107 81.2062 28.3113 81.2155 28.47C81.2248 28.6193 81.2295 28.848 81.2295 29.156C81.2295 29.5107 81.2202 30.0473 81.2015 30.766C81.1828 31.4847 81.1735 32.0213 81.1735 32.376C81.1735 32.6373 81.2062 32.824 81.2715 32.936C81.3462 33.0387 81.4768 33.09 81.6635 33.09C81.7382 33.09 81.8362 33.076 81.9575 33.048ZM80.0395 30.248C79.9555 30.3133 79.8668 30.3693 79.7735 30.416C79.6802 30.4627 79.5588 30.5 79.4095 30.528C79.2695 30.556 79.1715 30.5793 79.1155 30.598C79.0688 30.6073 78.9475 30.626 78.7515 30.654C78.5555 30.6727 78.4528 30.682 78.4435 30.682C78.1542 30.7193 77.9628 30.7473 77.8695 30.766C77.7855 30.7753 77.6175 30.8127 77.3655 30.878C77.1228 30.9433 76.9502 31.018 76.8475 31.102C76.7448 31.186 76.6422 31.312 76.5395 31.48C76.4462 31.6387 76.3995 31.83 76.3995 32.054C76.3995 32.4273 76.5255 32.7213 76.7775 32.936C77.0388 33.1507 77.3935 33.258 77.8415 33.258C78.4108 33.258 78.9195 33.09 79.3675 32.754C79.8155 32.418 80.0395 32.0213 80.0395 31.564V30.248ZM91.465 34H90.275V28.302H90.233L88.091 34H86.999L84.857 28.302H84.815V34H83.625V26.776H85.333L87.531 32.628H87.559L89.757 26.776H91.465V34ZM94.357 27.602C94.9917 26.9113 95.855 26.566 96.947 26.566C98.039 26.566 98.8884 26.8973 99.495 27.56C100.102 28.2227 100.405 29.1513 100.405 30.346C100.405 31.5687 100.102 32.5207 99.495 33.202C98.8884 33.8833 98.0344 34.224 96.933 34.224C95.8317 34.224 94.9684 33.888 94.343 33.216C93.7177 32.544 93.405 31.6107 93.405 30.416C93.405 29.2307 93.7224 28.2927 94.357 27.602ZM98.571 28.33C98.1697 27.8167 97.619 27.56 96.919 27.56C96.219 27.56 95.6637 27.8167 95.253 28.33C94.8424 28.8433 94.637 29.5293 94.637 30.388C94.637 31.2747 94.8377 31.97 95.239 32.474C95.6497 32.9687 96.219 33.216 96.947 33.216C97.647 33.216 98.193 32.964 98.585 32.46C98.9864 31.956 99.187 31.2607 99.187 30.374C99.187 29.5153 98.9817 28.834 98.571 28.33ZM102.354 34V26.776H105.7C106.176 26.776 106.582 26.818 106.918 26.902C107.254 26.9767 107.548 27.1493 107.8 27.42C108.052 27.6907 108.178 28.0593 108.178 28.526C108.178 29.2353 107.823 29.7533 107.114 30.08V30.094C107.543 30.178 107.879 30.3787 108.122 30.696C108.365 31.004 108.486 31.396 108.486 31.872C108.486 32.488 108.281 32.9967 107.87 33.398C107.459 33.7993 106.932 34 106.288 34H102.354ZM105.574 29.688C106.069 29.688 106.419 29.6087 106.624 29.45C106.839 29.282 106.946 29.0393 106.946 28.722C106.946 28.4047 106.843 28.1713 106.638 28.022C106.433 27.8727 106.078 27.798 105.574 27.798H103.516V29.688H105.574ZM103.516 30.696V32.978H106.064C106.437 32.978 106.727 32.866 106.932 32.642C107.147 32.418 107.254 32.1287 107.254 31.774C107.254 31.0553 106.787 30.696 105.854 30.696H103.516ZM111.988 34H110.462V26.776H111.652V32.67H111.68L114.928 26.776H116.454V34H115.264V28.106H115.236L111.988 34ZM118.773 34V26.776H122.119C122.595 26.776 123.001 26.818 123.337 26.902C123.673 26.9767 123.967 27.1493 124.219 27.42C124.471 27.6907 124.597 28.0593 124.597 28.526C124.597 29.2353 124.242 29.7533 123.533 30.08V30.094C123.962 30.178 124.298 30.3787 124.541 30.696C124.784 31.004 124.905 31.396 124.905 31.872C124.905 32.488 124.7 32.9967 124.289 33.398C123.878 33.7993 123.351 34 122.707 34H118.773ZM121.993 29.688C122.488 29.688 122.838 29.6087 123.043 29.45C123.258 29.282 123.365 29.0393 123.365 28.722C123.365 28.4047 123.262 28.1713 123.057 28.022C122.852 27.8727 122.497 27.798 121.993 27.798H119.935V29.688H121.993ZM119.935 30.696V32.978H122.483C122.856 32.978 123.146 32.866 123.351 32.642C123.566 32.418 123.673 32.1287 123.673 31.774C123.673 31.0553 123.206 30.696 122.273 30.696H119.935ZM128.14 24.032V25.488H126.936V24.032H128.14ZM128.14 26.776V34H126.936V26.776H128.14ZM130.138 28.862C130.194 28.0407 130.507 27.4527 131.076 27.098C131.645 26.7433 132.35 26.566 133.19 26.566C133.983 26.566 134.632 26.7293 135.136 27.056C135.649 27.3827 135.906 27.868 135.906 28.512C135.906 28.904 135.789 29.24 135.556 29.52C135.332 29.8 135.061 29.9727 134.744 30.038V30.066C135.127 30.1407 135.453 30.332 135.724 30.64C136.004 30.9387 136.144 31.3447 136.144 31.858C136.144 32.6047 135.85 33.188 135.262 33.608C134.674 34.0187 133.969 34.224 133.148 34.224C132.205 34.224 131.454 34.0093 130.894 33.58C130.343 33.1413 130.049 32.53 130.012 31.746H131.216C131.253 32.25 131.445 32.628 131.79 32.88C132.135 33.132 132.583 33.258 133.134 33.258C133.685 33.258 134.119 33.1273 134.436 32.866C134.753 32.5953 134.912 32.2687 134.912 31.886C134.912 31.102 134.399 30.71 133.372 30.71H132.378V29.744H133.176C133.633 29.744 134.002 29.6507 134.282 29.464C134.562 29.268 134.702 28.9693 134.702 28.568C134.702 28.288 134.562 28.0453 134.282 27.84C134.011 27.6347 133.643 27.532 133.176 27.532C132.7 27.532 132.285 27.6393 131.93 27.854C131.585 28.0687 131.389 28.4047 131.342 28.862H130.138ZM139.924 32.446V33.398C139.924 33.7527 139.905 34.0513 139.868 34.294C139.84 34.546 139.775 34.798 139.672 35.05C139.569 35.302 139.411 35.512 139.196 35.68C138.981 35.8573 138.706 35.988 138.37 36.072V35.372C138.874 35.204 139.131 34.7467 139.14 34H138.37V32.446H139.924ZM64.896 48V40.776H66.086V46.95H69.068V40.776H70.258V46.95H73.24V40.776H74.43V48H64.896ZM77.3503 41.602C77.985 40.9113 78.8483 40.566 79.9403 40.566C81.0323 40.566 81.8816 40.8973 82.4883 41.56C83.095 42.2227 83.3983 43.1513 83.3983 44.346C83.3983 45.5687 83.095 46.5207 82.4883 47.202C81.8816 47.8833 81.0276 48.224 79.9263 48.224C78.825 48.224 77.9616 47.888 77.3363 47.216C76.711 46.544 76.3983 45.6107 76.3983 44.416C76.3983 43.2307 76.7156 42.2927 77.3503 41.602ZM81.5643 42.33C81.163 41.8167 80.6123 41.56 79.9123 41.56C79.2123 41.56 78.657 41.8167 78.2463 42.33C77.8356 42.8433 77.6303 43.5293 77.6303 44.388C77.6303 45.2747 77.831 45.97 78.2323 46.474C78.643 46.9687 79.2123 47.216 79.9403 47.216C80.6403 47.216 81.1863 46.964 81.5783 46.46C81.9796 45.956 82.1803 45.2607 82.1803 44.374C82.1803 43.5153 81.975 42.834 81.5643 42.33ZM86.4954 40.776V41.798C87.018 40.9673 87.83 40.552 88.9314 40.552C89.9394 40.552 90.7374 40.8927 91.3254 41.574C91.9227 42.2553 92.2214 43.1793 92.2214 44.346C92.2214 45.5127 91.9274 46.446 91.3394 47.146C90.7607 47.8367 89.9767 48.182 88.9874 48.182C87.9514 48.182 87.144 47.7853 86.5654 46.992V50.786H85.3754V40.776H86.4954ZM88.7494 41.546C88.0587 41.546 87.5127 41.798 87.1114 42.302C86.7194 42.7967 86.5234 43.4827 86.5234 44.36C86.5234 45.2373 86.724 45.928 87.1254 46.432C87.536 46.9267 88.0914 47.174 88.7914 47.174C89.4727 47.174 90.0094 46.922 90.4014 46.418C90.7934 45.914 90.9894 45.228 90.9894 44.36C90.9894 43.4827 90.7887 42.7967 90.3874 42.302C89.9954 41.798 89.4494 41.546 88.7494 41.546ZM100.048 40.776L96.9541 48.924C96.8328 49.2507 96.7255 49.5027 96.6321 49.68C96.5481 49.8667 96.4221 50.0673 96.2541 50.282C96.0955 50.506 95.8995 50.6647 95.6661 50.758C95.4421 50.8607 95.1761 50.912 94.8681 50.912C94.6348 50.912 94.3408 50.87 93.9861 50.786V49.722C94.3315 49.8247 94.5881 49.876 94.7561 49.876C95.1481 49.876 95.4281 49.6753 95.5961 49.274L96.1561 47.958L93.2861 40.776H94.6301L96.7721 46.53L98.8021 40.776H100.048ZM109.456 48H108.266V42.302H108.224L106.082 48H104.99L102.848 42.302H102.806V48H101.616V40.776H103.324L105.522 46.628H105.55L107.748 40.776H109.456V48Z" fill="black"/>
<path d="M50.575 22H21.675C21.4625 22 21.25 22.1631 21.25 22.4093V41.8915C21.1653 41.933 21.1222 41.933 21.0375 41.973C20.1875 42.3007 19.2943 42.4638 18.4028 42.4638C17.6375 42.5054 17 43.1608 17 43.9378V49.2166C17 50.2814 18.1903 50.5675 18.8278 50.7306C19.721 50.9352 20.6557 51.1399 21.9307 51.3861C24.225 51.7954 26.3498 52 28.4748 52H31.6192C32.6817 52 33.4038 51.5491 33.5317 50.8138C33.6163 50.486 33.5317 50.1183 33.3623 49.8322H36.0816L50.575 49.8306C50.7875 49.8306 51 49.6675 51 49.4213V22.4093C51 22.1647 50.8307 22 50.575 22ZM33.6596 22.7786H38.6317V32.6011L36.422 30.6778C36.2527 30.5547 36.0402 30.5547 35.8692 30.6778L33.6595 32.6011L33.6596 22.7786ZM36.8471 48.4395C36.7624 48.7673 36.4652 48.9719 36.0817 48.9719H27.668C27.4555 48.9719 27.243 49.135 27.243 49.3812C27.243 49.5443 27.3277 49.7089 27.4987 49.7489C27.5418 49.7489 27.5833 49.7905 27.668 49.7905H32.0026C32.2151 49.7905 32.4276 49.872 32.5554 50.0367C32.6833 50.1997 32.7248 50.4044 32.6833 50.609C32.5986 51.0998 31.9611 51.1414 31.5776 51.1414H28.4333C26.3514 51.1414 24.2679 50.9367 22.0149 50.5275C20.7831 50.2813 19.8467 50.1182 18.9967 49.9135C18.2314 49.7089 17.8064 49.5458 17.8064 49.1765L17.8496 43.9374C17.8496 43.6097 18.1467 43.3235 18.4871 43.2819C19.4649 43.2404 20.4427 43.0773 21.3774 42.7096C21.5467 42.6681 21.6746 42.5865 21.8456 42.505H21.8887C22.6541 42.1772 23.4194 41.728 24.0569 41.1956L27.5416 38.2492C27.9666 38.003 28.5609 38.1261 28.8166 38.4954C29.0291 38.7816 29.0291 39.2324 28.8166 39.5602L25.6291 42.5881C25.5012 42.7112 25.4597 42.8743 25.5444 43.039C25.6291 43.2021 25.7569 43.2852 25.9262 43.2852L36.1245 43.282C36.5064 43.282 36.8467 43.6097 36.8467 43.9774C36.8467 44.1405 36.762 44.3451 36.6342 44.4682C36.5064 44.5913 36.337 44.6729 36.1245 44.6729L28.4745 44.6745C28.262 44.6745 28.0495 44.8375 28.0495 45.0837C28.0495 45.2884 28.2189 45.493 28.4745 45.493H37.8679C38.0804 45.493 38.2929 45.5745 38.4207 45.7392C38.5486 45.9023 38.5901 46.1069 38.5486 46.3115C38.5469 46.5977 38.2497 46.8023 37.8679 46.8023H28.4745C28.262 46.8023 28.0495 46.9654 28.0495 47.2116C28.0495 47.4578 28.2189 47.6209 28.4745 47.6209H36.1245C36.337 47.6209 36.5495 47.7024 36.6774 47.8671C36.8467 48.0301 36.8902 48.2349 36.8471 48.4395ZM50.15 49.0119H37.5279C37.6126 48.8888 37.6558 48.7656 37.6973 48.6026C37.7819 48.2748 37.6973 47.9071 37.5279 47.621H37.8683C38.6336 47.621 39.2711 47.1302 39.4404 46.4347C39.5251 45.9839 39.3973 45.5347 39.1433 45.2069C38.8461 44.8392 38.4211 44.6746 37.9529 44.6746H37.5279C37.6557 44.4699 37.6973 44.2237 37.6973 43.9791C37.6973 43.1606 37.0166 42.5051 36.1666 42.5051H26.9874L29.4942 40.131L29.5374 40.0894C29.9624 39.4755 29.9624 38.657 29.5374 38.0846C28.9846 37.3892 27.9221 37.1846 27.1152 37.6754C27.0721 37.6754 27.0721 37.7169 27.0721 37.7169L23.5442 40.6634C23.1192 41.0311 22.6511 41.3188 22.1414 41.605L22.1431 22.7785H32.8526V33.501C32.8526 33.6641 32.9373 33.7872 33.1083 33.8687C33.1515 33.9103 33.2361 33.9103 33.2776 33.9103C33.3623 33.9103 33.4901 33.8687 33.5748 33.7872L36.2095 31.4946L38.8441 33.7872C38.972 33.9103 39.1413 33.9103 39.3123 33.8687C39.4816 33.7872 39.568 33.6641 39.568 33.501V22.7785H50.1496L50.15 49.0119Z" fill="black"/>
</svg>
