<svg width="18" height="21" viewBox="0 0 18 21" fill="none" xmlns="http://www.w3.org/2000/svg">
<path d="M16.5264 20.3684C16.7298 20.6299 17.1068 20.6771 17.3684 20.4736C17.6299 20.2702 17.6771 19.8932 17.4736 19.6316L16.5264 20.3684ZM16.4 9C16.4 13.0869 13.0869 16.4 9 16.4V17.6C13.7496 17.6 17.6 13.7496 17.6 9H16.4ZM9 16.4C4.91309 16.4 1.6 13.0869 1.6 9H0.4C0.4 13.7496 4.25035 17.6 9 17.6V16.4ZM1.6 9C1.6 4.91309 4.91309 1.6 9 1.6V0.4C4.25035 0.4 0.4 4.25035 0.4 9H1.6ZM9 1.6C13.0869 1.6 16.4 4.91309 16.4 9H17.6C17.6 4.25035 13.7496 0.4 9 0.4V1.6ZM13.0264 15.8684L16.5264 20.3684L17.4736 19.6316L13.9736 15.1316L13.0264 15.8684Z" fill="#111111"/>
</svg>
