<svg width="21" height="22" viewBox="0 0 21 22" fill="none" xmlns="http://www.w3.org/2000/svg">
<path d="M9.53833 0.0253421C8.22973 0.191358 7.04809 0.777295 6.13501 1.71968C5.66626 2.20308 5.40747 2.56929 5.10473 3.17476C3.68383 6.03608 4.90454 9.498 7.82446 10.8652C8.69848 11.2705 9.80688 11.4609 10.7346 11.3632C12.7707 11.1386 14.4114 10.0058 15.3098 8.20405C16.97 4.86909 14.9973 0.85542 11.3254 0.103467C10.8518 0.00581087 9.99243 -0.0283688 9.53833 0.0253421ZM11.1106 1.24116C12.8928 1.60737 14.2893 3.01362 14.6604 4.8105C14.7873 5.4062 14.7581 6.30952 14.6018 6.8564C14.1575 8.4189 13.0002 9.59565 11.4524 10.0644C11.0471 10.1865 10.9446 10.2011 10.2073 10.2011C9.46997 10.2011 9.36743 10.1865 8.96215 10.0644C7.42895 9.60054 6.28149 8.44331 5.83227 6.92475C5.65161 6.30952 5.61743 5.45015 5.75415 4.8105C6.26684 2.33491 8.66918 0.738233 11.1106 1.24116Z" fill="#111111"/>
<path d="M9.30725 12.5791C6.70471 12.7793 4.26331 13.8779 2.50061 15.6406C1.23108 16.9101 0.366821 18.5605 0.0738525 20.2597C-0.0335693 20.8847 -0.0238037 21.2705 0.103149 21.4267C0.249634 21.6172 0.518188 21.6855 0.742798 21.5927C0.991821 21.4902 1.07971 21.3242 1.12854 20.8896C1.26526 19.6738 1.651 18.624 2.33948 17.5937C3.71643 15.5332 6.12366 14.1269 8.93616 13.7412C9.55627 13.6582 10.9576 13.6679 11.6412 13.7656C14.5758 14.1806 17.1002 15.8115 18.399 18.1308C18.8873 19.0049 19.1559 19.83 19.2877 20.8847C19.3561 21.4316 19.5026 21.6074 19.903 21.6074C20.0397 21.6074 20.1178 21.5683 20.2496 21.4365L20.4254 21.2607L20.3961 20.7871C20.2399 18.3994 18.6969 15.9287 16.4069 14.4052C14.7662 13.3115 13.0377 12.7304 10.9869 12.5742C10.2545 12.5205 10.0787 12.5205 9.30725 12.5791Z" fill="#111111"/>
</svg>
